<svg id="Layer_1" data-name="Layer 1" xmlns="http://www.w3.org/2000/svg" xmlns:xlink="http://www.w3.org/1999/xlink" viewBox="0 0 1920 1080"><defs><style>.cls-1{fill:#1a1e21;}.cls-2,.cls-3{stroke:#000;stroke-miterlimit:10;}.cls-2{fill:url(#linear-gradient);}.cls-3{fill:url(#linear-gradient-2);}.cls-4{fill:url(#linear-gradient-3);}.cls-5{fill:url(#linear-gradient-4);}.cls-6{fill:#009f5b;}</style><linearGradient id="linear-gradient" x1="1473.12" y1="108.74" x2="1682" y2="470.52" gradientUnits="userSpaceOnUse"><stop offset="0" stop-color="#ddff94"/><stop offset="0.06" stop-color="#d4fb92"/><stop offset="0.16" stop-color="#baf08b"/><stop offset="0.29" stop-color="#91de80"/><stop offset="0.45" stop-color="#57c571"/><stop offset="0.62" stop-color="#0ea55f"/><stop offset="0.65" stop-color="#009f5b"/><stop offset="0.99" stop-color="#009a47"/></linearGradient><linearGradient id="linear-gradient-2" x1="1319.5" y1="334.54" x2="1729.24" y2="334.54" xlink:href="#linear-gradient"/><linearGradient id="linear-gradient-3" x1="1291.1" y1="1059" x2="1299.9" y2="1074.24" xlink:href="#linear-gradient"/><linearGradient id="linear-gradient-4" x1="1282" y1="622" x2="1309" y2="622" xlink:href="#linear-gradient"/></defs><rect class="cls-1" x="0.5" y="0.5" width="1919" height="1079"/><path d="M1919,1V1079H1V1H1919m1-1H0V1080H1920V0Z"/><path class="cls-2" d="M1319.5,197.5s102.21-66,209.11,0,200.63,0,200.63,0V443.25"/><path class="cls-3" d="M1729.24,442.75s-102.22,66-209.11,0-200.63,0-200.63,0V197"/><ellipse class="cls-4" cx="1295.5" cy="1066.62" rx="13.5" ry="6.52"/><rect class="cls-5" x="1282" y="177" width="27" height="890"/><ellipse class="cls-6" cx="1295.5" cy="176.52" rx="13.5" ry="6.52"/></svg>