<svg id="Réteg_1" data-name="Réteg 1" xmlns="http://www.w3.org/2000/svg" viewBox="0 0 107.81 91.1"><defs><style>.cls-1{fill:#1b1e21;}.cls-2{fill:#fff;}</style></defs><title>logo-black-white-vector</title><rect class="cls-1" x="0.05" width="107.76" height="91.1"/><g id="Réteg_2" data-name="Réteg 2"><g id="Réteg_1-2" data-name="Réteg 1"><path class="cls-2" d="M81.56,86.86h1.87C82.85,88,82.5,88,81.56,86.86Z" transform="translate(0.05)"/><path class="cls-2" d="M55.12,75.68a5.61,5.61,0,0,0-3,2.65c-1.19,2-3.87,2.66-6.3,1.76a12.48,12.48,0,0,1-2.64-1.37,29.56,29.56,0,0,1-2.47-2c.45,5.9-2.93,10-6.19,14.37C30.9,87,27,83.1,27.82,76.65l-1,1A9.42,9.42,0,0,1,21,80.53a5.47,5.47,0,0,1-6-4.09,11.7,11.7,0,0,1,.77-7.33c.25.35.51.68.79,1a3.74,3.74,0,0,0,5.29.17l.09-.09a5.57,5.57,0,0,0,1.43-2c1.4-4.07,2.4-8.23,1.27-12.55a12.13,12.13,0,0,0-5.92-7.79C15,45.85,11,46.32,8.58,51.61c-.25.54-.47,1.09-.79,1.84a28.66,28.66,0,0,1-3.1-2.83c-3.34-4-5.3-8.53-4.6-13.9A12,12,0,0,1,11.65,26.48a30.86,30.86,0,0,1,4.9.13,13.53,13.53,0,0,1,6.51,3.11c-.15-.37-.29-.75-.43-1.12A19.5,19.5,0,0,1,21.85,15,21.37,21.37,0,0,1,28.5,5.64c1.36-1.19,2.92-2.16,4.28-3.35A17.74,17.74,0,0,0,34.73,0c2.41,2.14,4.87,4.37,7.39,6.55a21.31,21.31,0,0,1,5.33,6.39c-.57-2,.82-2.88,2-3.88,1.11,1.83.61,3.27-1.68,4.81,2.26,5.74.36,11-2,16.34A17.8,17.8,0,0,1,59.7,26.64c.09-.29.2-.54.25-.79a14.54,14.54,0,0,1,5.57-9.6c1.59-1.2,3-2.63,4.38-3.84a79.08,79.08,0,0,1,6.43,5.42c3.6,3.7,5.2,8.13,3.63,13.28-.78,2.55-1.93,5-2.75,7.53s-1.4,4.9-2,7.37c-.36,1.53-.7,1.9-2.26,1.74a5.92,5.92,0,0,0-.94-.14c-.75,0-.93-.37-1-1q-.15-7.36-.37-14.74c-.11-3.67-.27-7.34-.6-11q-.5,13.2-1,26.5c-.86.53-2.39-.52-2.81,1.35h1.29c3.48.08,7,.14,10.43.29a8.1,8.1,0,0,1,2.65.64c.41.16,1,.78.9,1.09a1.66,1.66,0,0,1-1.06,1.08,23.53,23.53,0,0,1-4.51.52c-4,0-8.07-.11-12.1-.15a7.25,7.25,0,0,0-1.39.26v.36l1.61.41c.41,2.7-1.94,6.93-4.39,8a4.39,4.39,0,0,1-5.21-1.9A18.6,18.6,0,0,1,53.25,57a8.38,8.38,0,0,1,1,.12,4.3,4.3,0,0,0,5.33-2.52,5.28,5.28,0,0,1,.7-1.25c.67-.79.37-1.32-.42-1.67s-1.63-.79-.86-1.94c.08-.13-.1-.51-.24-.71a6.43,6.43,0,0,0-8.12-1.46,37.94,37.94,0,0,0-3.8,3A9.51,9.51,0,0,0,44,57.94a59.38,59.38,0,0,0,.52,8c.06.58.76,1.14,1.25,1.62s.89.86.3,1.26a12.38,12.38,0,0,1,2.59,1.62c.86.88,1.61.6,2.42.19A18.18,18.18,0,0,0,53,69.35a11.77,11.77,0,0,1,.57,2.88c-.08,1.33.56,1.78,1.65,2l.7.14-.69,1.35Zm-20-25.46.61.1c2.09.4,1.71.61,2.21-1.41A57.51,57.51,0,0,1,40,40.84c2-4.87,4.42-9.55,6.44-14.4a15.58,15.58,0,0,0-.18-13.53,19.83,19.83,0,0,0-5.44-6.43C39,5,37.16,3.39,35.29,1.82,35.2,3,35.06,4,35.05,5.11q0,20.31,0,40.62a9.75,9.75,0,0,0,.42,2c-.92.54-.42,1.53-.33,2.49ZM34.17,47h.22V1.75c-.75.68-1.44,1.34-2.16,2A69.46,69.46,0,0,0,26.37,9a16.32,16.32,0,0,0-4.56,12.55c.28,3.73,1.74,7,3.28,10.28,2.85,6.09,6.13,12,6.33,19.06.87-.24,1.83-.24,2.29-.72s.16-1.36.19-1.93l-1.58-.1,1.31-.83c-.35-1.21-.35-1.21.36-1.33Zm-6,5.76a12.76,12.76,0,0,0,1.71-1.1,1.73,1.73,0,0,0,.63-1.17A44.22,44.22,0,0,0,27.4,38.15c-1.56-3.44-3.36-6.68-6.67-8.84-6.07-3.94-15.47-3-18.86,4.7C-.12,38.49.62,43,3,47.13A38.82,38.82,0,0,0,5.88,51c-.16-1.36-.6-2.54-.66-3.74-.29-5.73,2.87-9.84,8.77-9.61A11.7,11.7,0,0,1,21.4,41.2a24.46,24.46,0,0,1,6.76,11.52ZM62.42,51.4a15.42,15.42,0,0,0,5.1-7.23c1.35-3.83,1.55-7.65-.64-11.27-3.36-5.54-9-6.82-14.66-5.07-3.16,1-6,2.55-7.81,5.57a48.16,48.16,0,0,0-5.69,15.15c-.51,2.59-.36,2.87,1.91,3.78a85.7,85.7,0,0,1,4.11-7.68c2.76-4.1,6.38-7,11.73-6.86a7.14,7.14,0,0,1,7.33,6.6,14.12,14.12,0,0,1-1.39,7Zm-36.9,4.7c.32-.48.53-.81.76-1.13A4.52,4.52,0,0,1,27,54a1.37,1.37,0,0,0,.42-1.7c-2.17-6.24-4.86-11.92-12.14-13.77a8,8,0,0,0-6,.71c-2.87,1.5-3.64,4.29-3.55,7.32A8.38,8.38,0,0,0,7.53,52a40.1,40.1,0,0,1,3-4.32c2.13-2.33,6.42-1.88,8.89-.27A14.75,14.75,0,0,1,25.52,56.1Zm35.93-4.19a11.84,11.84,0,0,0,1.77-6.45c0-4.37-2.7-7.25-7.29-7.22a6.57,6.57,0,0,0-2,.48,18.49,18.49,0,0,0-4.09,1.47C45.2,43.08,43,47.69,41.46,52.7a.91.91,0,0,0,.18.71c.55.66,1.14,1.27,1.75,1.93.1-.15.2-.24.22-.34.85-3.7,3.33-6.12,6.41-8s6.18-1.64,8.56.73A26.47,26.47,0,0,1,61.45,51.91ZM31.89,62.66a17,17,0,0,1-.15,2.47,79.32,79.32,0,0,1-2.11,8.19c-2.49,7.12.28,11.63,4.46,15.85V62.66Zm3,26.3.31.07c1-1.52,2.11-3,3-4.59,1.71-3.19,2.41-6.48,1.12-10.1a57.42,57.42,0,0,1-1.92-7.51,35.46,35.46,0,0,1-.4-4.12H34.91ZM29,62.67a2.78,2.78,0,0,1-.05.7,17,17,0,0,1-3.82,10.47c-2.29,2.64-5.22,3.25-7.72.57a20.8,20.8,0,0,1-1.77-2.69c-.1,1.14-.14,2.28-.13,3.42a5.37,5.37,0,0,0,5,4.63,8.07,8.07,0,0,0,6.11-3,16.83,16.83,0,0,0,3.8-9c.25-1.67.41-3.35.61-5.07Zm8.62,0c.42,2.69.64,5.25,1.24,7.7,1,4,3.06,7.26,7.14,8.81,2.32.88,4.41.41,5.58-1.3a7.91,7.91,0,0,0,1-5.89c-.08.21-.17.39-.24.58-1.24,3.24-5,4.89-7.87,2.11A12.72,12.72,0,0,1,42.87,73a15.57,15.57,0,0,1-2.35-6.83c-.19-1.2-.32-2.41-.49-3.7Zm3.15-.13a16.17,16.17,0,0,0,1.51,8.13,11,11,0,0,0,3.17,4.16c2.8,1.92,6,.17,6.56-3.72-3.15,1.48-5.87.54-7.36-2.68a17.73,17.73,0,0,1-1.12-3.63c-.47-2.19-.42-2.2-2.74-2.22Zm-24.5,8.38c.13.57.18.92.28,1.25.91,2.84,4.79,4.35,6.8,2.61A13.17,13.17,0,0,0,27,70a18.5,18.5,0,0,0,1.36-7.31h-2.6c-.37,1.6-.66,3.16-1.11,4.67a8.12,8.12,0,0,1-2.68,4C20,73,18.24,72.07,16.27,70.92ZM38,53.37l1.07,3.77,1.42-2.82,1.54,3a1.83,1.83,0,0,0,0-2.59,1.7,1.7,0,0,0-.34-.26c-.7-.58-1.27-1.33-2-1.87a23.62,23.62,0,0,0-2.45-1.38v5.27h.28Zm26.41-2.88.16.41H78.06a2.56,2.56,0,0,0,.8-.29l-.07-.4H75.65c-3.35-.07-6.7-.18-10-.23a3.87,3.87,0,0,0-1.2.51ZM37,57.89a28.06,28.06,0,0,0-1.56-3.5c-.46-.74-1.2-.74-1.9,0a4.66,4.66,0,0,0-1.16,3.53Zm-5.39-6.37a11.34,11.34,0,0,0-4.39,3.3c-1,1.2-1,1.59-.09,2.64l1.22-3,1.58,2.75.77-3.94L31.43,56l.19,0ZM32.44,53h4.13l-.09-1.76H34C32.25,51.27,32.25,51.27,32.44,53Zm1.75,5.85a1.19,1.19,0,0,0-1.28,1.09v.18c0,1.16,1.06,1.15,1.85,1.18s1.5-.2,1.47-1.16-.79-1.22-2-1.26Zm5.14,2.72L39,58.45H37.29V61.6Zm-9.22-3v3.15h1.65V58.56Zm-.8,3.06v-3H27.84v3.19Zm11.89-.16v-2c0-1.21,0-1.22-1.29-.93v3.15Zm.83-3v3.35c.48-.18,1.07-.28,1.08-.43.09-1,0-1.94,0-2.92Zm-15.21,3.3v-3H25.76v3Zm2.77-3.64c-.35-.89-.59-1.56-.88-2.22H28.2c-.22.68-.39,1.37-.6,2.17ZM41.43,58c-.19-.8-.35-1.47-.54-2.12a.89.89,0,0,0-.51,0c-.26.65-.46,1.32-.73,2.11Zm-11.37.39,1.43-.46-.77-2.33Zm8.82-.41L38.31,56l-.25.06-.56,1.8Z" transform="translate(0.05)"/><path class="cls-2" d="M76.24,47.44c.55-4.56,1.67-8.73,4.26-12.38a12.18,12.18,0,0,1,7.22-4.85,8.29,8.29,0,0,1,8.57,2.71c3.71,4.1,3.33,11.13-.72,14.34a6.67,6.67,0,0,1-5.34,1.38,8,8,0,0,1,.16-1,4.76,4.76,0,0,0-2.91-5c-1.75-.75-3.55-.18-4.88,1.7a16.21,16.21,0,0,0-1.58,3c-.29.66-.62.93-1.35.78A29.74,29.74,0,0,0,76.24,47.44Z" transform="translate(0.05)"/><path class="cls-2" d="M69.31,53.1l.91,9.9h.2c.27-2.52.57-5,.82-7.55a2.38,2.38,0,0,1,2.4-2.36,2.28,2.28,0,0,1,1,.21,2.12,2.12,0,0,1,.91,1.15c.84,2.1,1.59,4.24,2.44,6.34a2.22,2.22,0,0,1-.29,2.46,18.8,18.8,0,0,1-5.9,5,3.1,3.1,0,0,1-2.46.18A14.89,14.89,0,0,1,63,62.81a3,3,0,0,1,0-2.22c.74-2.22,1.68-4.37,2.45-6.59.22-.62.39-1,1.1-.91C67.43,53.14,68.31,53.1,69.31,53.1Z" transform="translate(0.05)"/><path class="cls-2" d="M76.24,53.21c.51-.11.93-.22,1.35-.3,2.35-.41,2.61-.27,3.52,1.89a3.77,3.77,0,0,0,3.73,2.48h2.21a4.68,4.68,0,0,1-3,3.84,3.78,3.78,0,0,1-4.4-1A15.05,15.05,0,0,1,76.24,53.21Z" transform="translate(0.05)"/><path class="cls-2" d="M80.84,75.51c-1.64.87-3.16,1.21-4.56.41L71.61,78.3a4.69,4.69,0,0,1,3.74-4.64,4.39,4.39,0,0,1,2.33-.09A21.77,21.77,0,0,1,80.84,75.51Z" transform="translate(0.05)"/><path class="cls-2" d="M66.94,78.56l2.19-2.07-2,.22c.73-.87,1.46-1.4,2.63-.81.42.2,1.07-.06,1.79-.12A2.57,2.57,0,0,1,71,78.13c-.77,1.17-2.43,1.67-4.46,1.42l.48-1Z" transform="translate(0.05)"/><path class="cls-2" d="M81.39,78.86l.53,2.53-.32.14-2.74-2.72c.1-2.12,2-2.52,3.85-3.2C82.83,77.12,82.64,78.37,81.39,78.86Z" transform="translate(0.05)"/><path class="cls-2" d="M60.17,78.92,62,81.77h0l.42,1.32c-1.64,1-3,.57-3.38-1.2a19.79,19.79,0,0,1,0-3.61l1.08.56Z" transform="translate(0.05)"/><path class="cls-2" d="M57.37,7.71c0-2.8.9-3.68,4.06-4C61.75,6,60.53,7.25,57.37,7.71Z" transform="translate(0.05)"/><path class="cls-2" d="M67,78.52c-1.57,1.35-3.26,1.09-5,.41.45-2.11,2.23-2.55,5.47-1.74L67,78.56Z" transform="translate(0.05)"/><path class="cls-2" d="M86.55,6.83c-1.38,1.9-2.73,2-5.49.64C81.79,5.22,83.75,5,86.55,6.83Z" transform="translate(0.05)"/><path class="cls-2" d="M64.42,82.91c.57-2.71,2-3.13,5.37-1.6C68.65,83,67.44,83.38,64.42,82.91Z" transform="translate(0.05)"/><path class="cls-2" d="M65.71,83.32c-.28,2-.85,2.69-2,2.84a3.36,3.36,0,0,1-3.35-2.33Z" transform="translate(0.05)"/><path class="cls-2" d="M102.22,21.89c-2.33.54-3.75-.33-4.59-2.74C100,17.81,101.54,19.31,102.22,21.89Z" transform="translate(0.05)"/><path class="cls-2" d="M73.66,4.14C72.52,5.72,71,5.75,69,5.09c.67-.92,1.12-2.08,1.93-2.47a2.5,2.5,0,0,1,3,.45l-.29,1.11Z" transform="translate(0.05)"/><path class="cls-2" d="M72.43,82.15l1.73,1.26a3,3,0,0,1-3.54,1c-.72-.21-1.44-.46-2.16-.69h0a2.55,2.55,0,0,1,2.29-1.92h1.16Z" transform="translate(0.05)"/><path class="cls-2" d="M99.8,18.14c-3,.71-4.34.05-5-2.38C96.93,14.88,97.65,15.21,99.8,18.14Z" transform="translate(0.05)"/><path class="cls-2" d="M74.89,83.17c.91-2.17,4.44-2.31,6,.14A8.66,8.66,0,0,1,74.89,83.17Z" transform="translate(0.05)"/><path class="cls-2" d="M60.17,78.92l-.12-.1a3.27,3.27,0,0,1,1.77-4.27,3.32,3.32,0,0,1,1.28-.25c-.3.89-.57,1.73-.86,2.57s-.59,1.64-.91,2.53Z" transform="translate(0.05)"/><path class="cls-2" d="M97,69.42c-1.36-2.14-.19-3.72,1-5.31C99.61,65.21,99.76,68.07,97,69.42Z" transform="translate(0.05)"/><path class="cls-2" d="M77,6.16c1-2.15,2-2.43,5-1.4C81.48,6.81,79.69,7.32,77,6.16Z" transform="translate(0.05)"/><path class="cls-2" d="M91.68,13.07c2-1.21,3.13-1.09,4.23.43.6.82.37,1.43-.62,1.66C93.9,15.49,92.7,14.8,91.68,13.07Z" transform="translate(0.05)"/><path class="cls-2" d="M78.74,84.27c2.73-.89,4.1-.36,5.41,2.13C82,86.66,79.91,86.71,78.74,84.27Z" transform="translate(0.05)"/><path class="cls-2" d="M93.55,11.65c-1.84,1.24-3.48,1-5-.77C90.15,9,92.11,9.28,93.55,11.65Z" transform="translate(0.05)"/><path class="cls-2" d="M100.49,60.86a3.61,3.61,0,0,1-.14,5,1,1,0,0,1-.95-.23A3.76,3.76,0,0,1,100.49,60.86Z" transform="translate(0.05)"/><path class="cls-2" d="M105.38,41.7c2.24.59,2.74,1.62,2.16,4.5C105.39,46,104.78,44.73,105.38,41.7Z" transform="translate(0.05)"/><path class="cls-2" d="M83.06,78.28c0-2.57,1.15-4,3.12-4C86.75,76.55,85.71,77.92,83.06,78.28Z" transform="translate(0.05)"/><path class="cls-2" d="M62.76,76.42c.42-.85.63-2,1.1-2.08a8.24,8.24,0,0,1,3.09.13c.33,0,.62.43.93.66C66.91,76.39,66.19,76.59,62.76,76.42Z" transform="translate(0.05)"/><path class="cls-2" d="M103.53,53.64c2,1.13,2.23,2.57.94,5C102.63,58,102.39,56.82,103.53,53.64Z" transform="translate(0.05)"/><path class="cls-2" d="M77.28,85.2c-1.67,1.59-2.8,1.53-5,.13,1.17-.92,2.3-1.75,3.85-1.45.61.11,1.4.24,1.21,1.23A.24.24,0,0,0,77.28,85.2Z" transform="translate(0.05)"/><path class="cls-2" d="M95.63,67.23c1.22,2.12.63,3.87-1.68,5C93.09,70.57,93.58,69.12,95.63,67.23Z" transform="translate(0.05)"/><path class="cls-2" d="M74.66,79.37c.9-2.08.9-2.08,4.2-2.68C79.14,79.07,77.37,80.2,74.66,79.37Z" transform="translate(0.05)"/><path class="cls-2" d="M90.31,74.65c-.19-2.28.19-3,2.39-4.55C94.08,71.58,92.92,74.22,90.31,74.65Z" transform="translate(0.05)"/><path class="cls-2" d="M73.61,4.18a3.61,3.61,0,0,1,4.18-.57c-1,2.09-1.93,2.51-4.59,2.08l.46-1.55Z" transform="translate(0.05)"/><path class="cls-2" d="M90.17,8.92c-1.31,1.63-3.13,1.66-5.24.15C86.06,7.36,87.69,7.3,90.17,8.92Z" transform="translate(0.05)"/><path class="cls-2" d="M55.12,75.68h0a3.86,3.86,0,0,1,4.36.08c-.83,1.89-2.41,2.2-4.8.93Z" transform="translate(0.05)"/><path class="cls-2" d="M104.19,25.67c-2.73.24-3.64-.4-4.12-2.8C102.26,22.24,102.87,22.65,104.19,25.67Z" transform="translate(0.05)"/><path class="cls-2" d="M104.52,49.88c1.86.56,2.57,2.53,1.27,4.78C104,54,103.61,52.4,104.52,49.88Z" transform="translate(0.05)"/><path class="cls-2" d="M86.75,76.71c0-2.42.68-3.47,2.65-4.17C90.51,74.47,89.49,76.12,86.75,76.71Z" transform="translate(0.05)"/><path class="cls-2" d="M56.93,5.05c.58,2.18-.49,3.7-2.8,4.13C53.68,7,54.26,6.08,56.93,5.05Z" transform="translate(0.05)"/><path class="cls-2" d="M50.91,11.23c-.23-3-.1-3.22,2.19-4.39C54.17,8.73,53.23,10.66,50.91,11.23Z" transform="translate(0.05)"/><path class="cls-2" d="M106.88,50.74c-2.15-1.45-2.5-2.55-1.69-5C107.53,47.17,107.21,46.39,106.88,50.74Z" transform="translate(0.05)"/><path class="cls-2" d="M69.54,2.58c-.63,2.54-1.07,2.86-4.15,3C65.9,3.26,66.58,2.75,69.54,2.58Z" transform="translate(0.05)"/><path class="cls-2" d="M61.64,6.29c-.18-2.76,1.8-3,3.73-3.25C65.69,4.7,63.64,6.62,61.64,6.29Z" transform="translate(0.05)"/><path class="cls-2" d="M102.21,57.36c1.64,1.24,1.67,3.27.07,5.19C100.91,61.42,100.88,59.26,102.21,57.36Z" transform="translate(0.05)"/><path class="cls-2" d="M107.25,38c-1.12-.25-2.11-.52-2.25-2a17,17,0,0,0-.59-2.54C106.76,34,107.24,34.76,107.25,38Z" transform="translate(0.05)"/><path class="cls-2" d="M105.54,29.29c-2.42.53-2.77-1.51-3.68-2.84C104,25.59,105.27,26.52,105.54,29.29Z" transform="translate(0.05)"/><path class="cls-2" d="M106.82,33.41c-2.66-.66-3.12-1.18-3.35-3.71C105.82,30,106,30.15,106.82,33.41Z" transform="translate(0.05)"/><path class="cls-2" d="M107.52,42c-2.13-.67-2.3-1-2.37-4C107.58,38.74,107.28,38.47,107.52,42Z" transform="translate(0.05)"/><path class="cls-2" d="M58.25,84.09a14.18,14.18,0,0,1,.21,2.6c0,.36-.61.86-1,1a1.37,1.37,0,0,1-1.14-.6,1.54,1.54,0,0,1,.07-1.34,11.76,11.76,0,0,1,1.5-1.65Z" transform="translate(0.05)"/><path class="cls-2" d="M68.46,83.75l1.1.76-3.94,1.35c.16-2,.67-2.38,2.88-2.09Z" transform="translate(0.05)"/><path class="cls-2" d="M72.43,82.15,72,81.88c.14-.21.26-.58.42-.6,1.24-.17,2.48-.27,4-.42C75.11,82.13,74,83,72.43,82.15Z" transform="translate(0.05)"/><path class="cls-2" d="M62,81.77c.6-1.11,1.58-1.36,3.1-1.25a11.08,11.08,0,0,1-1.57,2.15c-.15.13-1-.59-1.54-.92C62,81.75,62,81.77,62,81.77Z" transform="translate(0.05)"/><path class="cls-2" d="M71.81,78.81l2.66-1.45.31.12c-.11.43-.11,1.12-.36,1.23a14,14,0,0,1-2.45.64Z" transform="translate(0.05)"/><path class="cls-2" d="M59.06,83.47l1.53,1.82-1.52,1.3-.27-3Z" transform="translate(0.05)"/><path class="cls-2" d="M55.56,90.36l-2-2.22C55,88,55.66,88.63,55.56,90.36Z" transform="translate(0.05)"/><path class="cls-2" d="M84.08,90.08l1.45-2.34C86.14,89,85.83,89.51,84.08,90.08Z" transform="translate(0.05)"/><path class="cls-2" d="M77.28,85.2a.24.24,0,0,1,.08-.09c1-.81,1,.26,1.58.74l-2.09.46Z" transform="translate(0.05)"/></g></g></svg>