<svg xmlns="http://www.w3.org/2000/svg" xmlns:xlink="http://www.w3.org/1999/xlink" viewBox="0 0 1200 1200"><defs><style>.cls-1{isolation:isolate;}.cls-2{fill:url(#radial-gradient);}.cls-3{mix-blend-mode:screen;}.cls-4{fill:#231f20;}</style><radialGradient id="radial-gradient" cx="601.05" cy="589.83" r="81" gradientTransform="translate(-5426.52 -5426.52) scale(10.04)" gradientUnits="userSpaceOnUse"><stop offset="0" stop-color="#58595b"/><stop offset="0.28" stop-color="#4d4d4f"/><stop offset="0.79" stop-color="#312e2f"/><stop offset="1" stop-color="#231f20"/></radialGradient></defs><title>Eszköz 1welcome-img.layer</title><g class="cls-1"><g id="Réteg_2" data-name="Réteg 2"><g id="Layer_1" data-name="Layer 1"><rect class="cls-2" width="1200" height="1200"/><g class="cls-3"><polygon class="cls-4" points="52.5 1200 38.12 1185.62 23.74 1200 52.5 1200"/><polygon class="cls-4" points="186.08 1200 171.69 1185.62 157.31 1200 186.08 1200"/><polygon class="cls-4" points="319.65 1200 305.26 1185.62 290.88 1200 319.65 1200"/><polygon class="cls-4" points="453.22 1200 438.84 1185.62 424.45 1200 453.22 1200"/><polygon class="cls-4" points="586.79 1200 572.41 1185.62 558.03 1200 586.79 1200"/><polygon class="cls-4" points="720.37 1200 705.98 1185.62 691.6 1200 720.37 1200"/><polygon class="cls-4" points="853.94 1200 839.56 1185.62 825.17 1200 853.94 1200"/><polygon class="cls-4" points="987.51 1200 973.13 1185.62 958.75 1200 987.51 1200"/><polygon class="cls-4" points="1121.09 1200 1106.7 1185.62 1092.32 1200 1121.09 1200"/><polygon class="cls-4" points="0 1137.98 0 1199.81 30.91 1168.9 0 1137.98"/><polygon class="cls-4" points="133.38 1200 164.49 1168.9 104.91 1109.31 45.32 1168.9 76.43 1200 133.38 1200"/><polygon class="cls-4" points="266.96 1200 298.06 1168.9 238.48 1109.31 178.9 1168.9 210 1200 266.96 1200"/><polygon class="cls-4" points="400.53 1200 431.63 1168.9 372.05 1109.31 312.47 1168.9 343.57 1200 400.53 1200"/><polygon class="cls-4" points="534.1 1200 565.21 1168.9 505.62 1109.31 446.04 1168.9 477.15 1200 534.1 1200"/><polygon class="cls-4" points="667.67 1200 698.78 1168.9 639.2 1109.31 579.62 1168.9 610.72 1200 667.67 1200"/><polygon class="cls-4" points="801.25 1200 832.35 1168.9 772.77 1109.31 713.19 1168.9 744.29 1200 801.25 1200"/><polygon class="cls-4" points="934.82 1200 965.92 1168.9 906.34 1109.31 846.76 1168.9 877.87 1200 934.82 1200"/><polygon class="cls-4" points="1068.39 1200 1099.5 1168.9 1039.91 1109.31 980.33 1168.9 1011.44 1200 1068.39 1200"/><polygon class="cls-4" points="1200 1200 1200 1135.83 1173.49 1109.31 1113.91 1168.9 1145.01 1200 1200 1200"/><polygon class="cls-4" points="38.12 1033.01 0 1071.13 0 1114.06 38.12 1152.17 97.7 1092.59 38.12 1033.01"/><rect class="cls-4" x="129.56" y="1050.46" width="84.26" height="84.26" transform="translate(-722.29 441.41) rotate(-45)"/><rect class="cls-4" x="263.13" y="1050.46" width="84.26" height="84.26" transform="translate(-683.16 535.85) rotate(-45)"/><rect class="cls-4" x="396.71" y="1050.46" width="84.26" height="84.26" transform="translate(-644.04 630.31) rotate(-45)"/><rect class="cls-4" x="530.28" y="1050.46" width="84.26" height="84.26" transform="translate(-604.92 724.76) rotate(-45)"/><rect class="cls-4" x="663.85" y="1050.46" width="84.26" height="84.26" transform="translate(-565.8 819.22) rotate(-45)"/><rect class="cls-4" x="797.43" y="1050.46" width="84.26" height="84.26" transform="translate(-526.68 913.67) rotate(-45)"/><rect class="cls-4" x="931" y="1050.46" width="84.26" height="84.26" transform="translate(-487.56 1008.1) rotate(-45)"/><rect class="cls-4" x="1064.57" y="1050.46" width="84.26" height="84.26" transform="translate(-448.43 1102.56) rotate(-45)"/><polygon class="cls-4" points="1200 1073.29 1180.69 1092.59 1200 1111.9 1200 1073.29"/><polygon class="cls-4" points="0 985.38 0 1047.2 30.91 1016.29 0 985.38"/><rect class="cls-4" x="62.78" y="974.16" width="84.26" height="84.26" transform="translate(-687.89 371.84) rotate(-45)"/><rect class="cls-4" x="196.35" y="974.16" width="84.26" height="84.26" transform="translate(-648.77 466.28) rotate(-45)"/><rect class="cls-4" x="329.92" y="974.16" width="84.26" height="84.26" transform="translate(-609.65 560.74) rotate(-45)"/><rect class="cls-4" x="463.49" y="974.16" width="84.26" height="84.26" transform="translate(-570.53 655.19) rotate(-45)"/><rect class="cls-4" x="597.07" y="974.16" width="84.26" height="84.26" transform="translate(-531.41 749.65) rotate(-45)"/><rect class="cls-4" x="730.64" y="974.16" width="84.26" height="84.26" transform="translate(-492.29 844.09) rotate(-45)"/><rect class="cls-4" x="864.21" y="974.16" width="84.26" height="84.26" transform="translate(-453.16 938.53) rotate(-45)"/><rect class="cls-4" x="997.78" y="974.16" width="84.26" height="84.26" transform="translate(-414.04 1032.97) rotate(-45)"/><polygon class="cls-4" points="1200 983.22 1173.49 956.71 1113.91 1016.29 1173.49 1075.87 1200 1049.36 1200 983.22"/><polygon class="cls-4" points="38.12 880.41 0 918.52 0 961.45 38.12 999.57 97.7 939.99 38.12 880.41"/><rect class="cls-4" x="129.56" y="897.86" width="84.26" height="84.26" transform="translate(-614.39 396.72) rotate(-45)"/><rect class="cls-4" x="263.13" y="897.86" width="84.26" height="84.26" transform="translate(-575.26 491.17) rotate(-45)"/><rect class="cls-4" x="396.71" y="897.86" width="84.26" height="84.26" transform="translate(-536.14 585.62) rotate(-45)"/><rect class="cls-4" x="530.28" y="897.86" width="84.26" height="84.26" transform="translate(-497.02 680.07) rotate(-45)"/><rect class="cls-4" x="663.85" y="897.86" width="84.26" height="84.26" transform="translate(-457.9 774.53) rotate(-45)"/><rect class="cls-4" x="797.43" y="897.86" width="84.26" height="84.26" transform="translate(-418.77 868.98) rotate(-45)"/><rect class="cls-4" x="931" y="897.86" width="84.26" height="84.26" transform="translate(-379.65 963.42) rotate(-45)"/><rect class="cls-4" x="1064.57" y="897.86" width="84.26" height="84.26" transform="translate(-340.53 1057.87) rotate(-45)"/><polygon class="cls-4" points="1200 920.68 1180.69 939.99 1200 959.29 1200 920.68"/><polygon class="cls-4" points="0 832.77 0 894.6 30.91 863.68 0 832.77"/><rect class="cls-4" x="62.78" y="821.55" width="84.26" height="84.26" transform="translate(-579.99 327.15) rotate(-45)"/><rect class="cls-4" x="196.35" y="821.55" width="84.26" height="84.26" transform="translate(-540.87 421.59) rotate(-45)"/><rect class="cls-4" x="329.92" y="821.55" width="84.26" height="84.26" transform="translate(-501.75 516.05) rotate(-45)"/><rect class="cls-4" x="463.49" y="821.55" width="84.26" height="84.26" transform="translate(-462.62 610.5) rotate(-45)"/><rect class="cls-4" x="597.07" y="821.55" width="84.26" height="84.26" transform="translate(-423.5 704.96) rotate(-45)"/><rect class="cls-4" x="730.64" y="821.55" width="84.26" height="84.26" transform="translate(-384.38 799.41) rotate(-45)"/><rect class="cls-4" x="864.21" y="821.55" width="84.26" height="84.26" transform="translate(-345.26 893.85) rotate(-45)"/><rect class="cls-4" x="997.78" y="821.55" width="84.26" height="84.26" transform="translate(-306.13 988.29) rotate(-45)"/><polygon class="cls-4" points="1200 830.62 1173.49 804.1 1113.91 863.68 1173.49 923.27 1200 896.75 1200 830.62"/><polygon class="cls-4" points="38.12 727.8 0 765.92 0 808.84 38.12 846.96 97.7 787.38 38.12 727.8"/><rect class="cls-4" x="129.56" y="745.25" width="84.26" height="84.26" transform="translate(-506.48 352.03) rotate(-45)"/><rect class="cls-4" x="263.13" y="745.25" width="84.26" height="84.26" transform="translate(-467.35 446.47) rotate(-45)"/><rect class="cls-4" x="396.71" y="745.25" width="84.26" height="84.26" transform="translate(-428.23 540.92) rotate(-45)"/><rect class="cls-4" x="530.28" y="745.25" width="84.26" height="84.26" transform="translate(-389.11 635.37) rotate(-45)"/><rect class="cls-4" x="663.85" y="745.25" width="84.26" height="84.26" transform="translate(-349.99 729.83) rotate(-45)"/><rect class="cls-4" x="797.43" y="745.25" width="84.26" height="84.26" transform="translate(-310.86 824.28) rotate(-45)"/><rect class="cls-4" x="931" y="745.25" width="84.26" height="84.26" transform="translate(-271.74 918.72) rotate(-45)"/><rect class="cls-4" x="1064.57" y="745.25" width="84.26" height="84.26" transform="translate(-232.62 1013.18) rotate(-45)"/><polygon class="cls-4" points="1200 768.07 1180.69 787.38 1200 806.69 1200 768.07"/><polygon class="cls-4" points="0 680.16 0 742 30.91 711.08 0 680.16"/><rect class="cls-4" x="62.78" y="668.95" width="84.26" height="84.26" transform="translate(-472.08 282.45) rotate(-45)"/><rect class="cls-4" x="196.35" y="668.95" width="84.26" height="84.26" transform="translate(-432.96 376.89) rotate(-45)"/><rect class="cls-4" x="329.92" y="668.95" width="84.26" height="84.26" transform="translate(-393.84 471.35) rotate(-45)"/><rect class="cls-4" x="463.49" y="668.95" width="84.26" height="84.26" transform="translate(-354.71 565.79) rotate(-45)"/><rect class="cls-4" x="597.07" y="668.95" width="84.26" height="84.26" transform="translate(-315.59 660.25) rotate(-45)"/><rect class="cls-4" x="730.64" y="668.95" width="84.26" height="84.26" transform="translate(-276.47 754.7) rotate(-45)"/><rect class="cls-4" x="864.21" y="668.95" width="84.26" height="84.26" transform="translate(-237.35 849.14) rotate(-45)"/><rect class="cls-4" x="997.78" y="668.95" width="84.26" height="84.26" transform="translate(-198.23 943.58) rotate(-45)"/><polygon class="cls-4" points="1200 678.01 1173.49 651.5 1113.91 711.08 1173.49 770.66 1200 744.15 1200 678.01"/><polygon class="cls-4" points="38.12 575.2 0 613.32 0 656.24 38.12 694.36 97.7 634.78 38.12 575.2"/><rect class="cls-4" x="129.56" y="592.65" width="84.26" height="84.26" transform="translate(-398.57 307.33) rotate(-45)"/><rect class="cls-4" x="263.13" y="592.65" width="84.26" height="84.26" transform="translate(-359.44 401.77) rotate(-45)"/><rect class="cls-4" x="396.71" y="592.65" width="84.26" height="84.26" transform="translate(-320.32 496.22) rotate(-45)"/><rect class="cls-4" x="530.28" y="592.65" width="84.26" height="84.26" transform="translate(-281.2 590.67) rotate(-45)"/><rect class="cls-4" x="663.85" y="592.65" width="84.26" height="84.26" transform="translate(-242.08 685.13) rotate(-45)"/><rect class="cls-4" x="797.43" y="592.65" width="84.26" height="84.26" transform="translate(-202.96 779.58) rotate(-45)"/><rect class="cls-4" x="931" y="592.65" width="84.26" height="84.26" transform="translate(-163.84 874.02) rotate(-45)"/><rect class="cls-4" x="1064.57" y="592.65" width="84.26" height="84.26" transform="translate(-124.71 968.47) rotate(-45)"/><polygon class="cls-4" points="1200 615.47 1180.69 634.78 1200 654.09 1200 615.47"/><polygon class="cls-4" points="0 527.56 0 589.39 30.91 558.48 0 527.56"/><rect class="cls-4" x="62.78" y="516.34" width="84.26" height="84.26" transform="translate(-364.17 237.75) rotate(-45)"/><rect class="cls-4" x="196.35" y="516.34" width="84.26" height="84.26" transform="translate(-325.05 332.19) rotate(-45)"/><rect class="cls-4" x="329.92" y="516.34" width="84.26" height="84.26" transform="translate(-285.93 426.65) rotate(-45)"/><rect class="cls-4" x="463.49" y="516.34" width="84.26" height="84.26" transform="translate(-246.81 521.09) rotate(-45)"/><rect class="cls-4" x="597.07" y="516.34" width="84.26" height="84.26" transform="translate(-207.69 615.55) rotate(-45)"/><rect class="cls-4" x="730.64" y="516.34" width="84.26" height="84.26" transform="translate(-168.56 710) rotate(-45)"/><rect class="cls-4" x="864.21" y="516.34" width="84.26" height="84.26" transform="translate(-129.44 804.44) rotate(-45)"/><rect class="cls-4" x="997.78" y="516.34" width="84.26" height="84.26" transform="translate(-90.33 898.88) rotate(-45)"/><polygon class="cls-4" points="1200 525.41 1173.49 498.89 1113.91 558.48 1173.49 618.06 1200 591.54 1200 525.41"/><polygon class="cls-4" points="38.12 422.59 0 460.71 0 503.63 38.12 541.75 97.7 482.17 38.12 422.59"/><rect class="cls-4" x="129.56" y="440.04" width="84.26" height="84.26" transform="translate(-290.66 262.63) rotate(-45)"/><rect class="cls-4" x="263.13" y="440.04" width="84.26" height="84.26" transform="translate(-251.54 357.07) rotate(-45)"/><rect class="cls-4" x="396.71" y="440.04" width="84.26" height="84.26" transform="translate(-212.41 451.53) rotate(-45)"/><rect class="cls-4" x="530.28" y="440.04" width="84.26" height="84.26" transform="translate(-173.29 545.98) rotate(-45)"/><rect class="cls-4" x="663.85" y="440.04" width="84.26" height="84.26" transform="translate(-134.17 640.43) rotate(-45)"/><rect class="cls-4" x="797.43" y="440.04" width="84.26" height="84.26" transform="translate(-95.05 734.88) rotate(-45)"/><rect class="cls-4" x="931" y="440.04" width="84.26" height="84.26" transform="translate(-55.93 829.33) rotate(-45)"/><rect class="cls-4" x="1064.57" y="440.04" width="84.26" height="84.26" transform="translate(-16.8 923.78) rotate(-45)"/><polygon class="cls-4" points="1200 462.87 1180.69 482.17 1200 501.48 1200 462.87"/><polygon class="cls-4" points="0 374.96 0 436.79 30.91 405.87 0 374.96"/><rect class="cls-4" x="62.78" y="363.74" width="84.26" height="84.26" transform="translate(-256.27 193.06) rotate(-45)"/><rect class="cls-4" x="196.35" y="363.74" width="84.26" height="84.26" transform="translate(-217.14 287.5) rotate(-45)"/><rect class="cls-4" x="329.92" y="363.74" width="84.26" height="84.26" transform="translate(-178.02 381.96) rotate(-45)"/><rect class="cls-4" x="463.49" y="363.74" width="84.26" height="84.26" transform="translate(-138.9 476.4) rotate(-45)"/><rect class="cls-4" x="597.07" y="363.74" width="84.26" height="84.26" transform="translate(-99.78 570.86) rotate(-45)"/><rect class="cls-4" x="730.64" y="363.74" width="84.26" height="84.26" transform="translate(-60.65 665.31) rotate(-45)"/><rect class="cls-4" x="864.21" y="363.74" width="84.26" height="84.26" transform="translate(-21.53 759.75) rotate(-45)"/><rect class="cls-4" x="997.78" y="363.74" width="84.26" height="84.26" transform="translate(17.59 854.2) rotate(-45)"/><polygon class="cls-4" points="1200 372.8 1173.49 346.29 1113.91 405.87 1173.49 465.45 1200 438.94 1200 372.8"/><polygon class="cls-4" points="38.12 269.99 0 308.11 0 351.03 38.12 389.15 97.7 329.57 38.12 269.99"/><rect class="cls-4" x="129.56" y="287.44" width="84.26" height="84.26" transform="translate(-182.75 217.93) rotate(-45)"/><rect class="cls-4" x="263.13" y="287.44" width="84.26" height="84.26" transform="translate(-143.63 312.38) rotate(-45)"/><rect class="cls-4" x="396.71" y="287.44" width="84.26" height="84.26" transform="translate(-104.51 406.83) rotate(-45)"/><rect class="cls-4" x="530.28" y="287.44" width="84.26" height="84.26" transform="translate(-65.39 501.28) rotate(-45)"/><rect class="cls-4" x="663.85" y="287.44" width="84.26" height="84.26" transform="translate(-26.26 595.74) rotate(-45)"/><rect class="cls-4" x="797.43" y="287.44" width="84.26" height="84.26" transform="translate(12.86 690.19) rotate(-45)"/><rect class="cls-4" x="931" y="287.44" width="84.26" height="84.26" transform="translate(51.98 784.63) rotate(-45)"/><rect class="cls-4" x="1064.57" y="287.44" width="84.26" height="84.26" transform="translate(91.1 879.08) rotate(-45)"/><polygon class="cls-4" points="1200 310.26 1180.69 329.57 1200 348.88 1200 310.26"/><polygon class="cls-4" points="0 222.35 0 284.18 30.91 253.26 0 222.35"/><rect class="cls-4" x="62.78" y="211.13" width="84.26" height="84.26" transform="translate(-148.36 148.36) rotate(-45)"/><rect class="cls-4" x="196.35" y="211.13" width="84.26" height="84.26" transform="translate(-109.24 242.81) rotate(-45)"/><rect class="cls-4" x="329.92" y="211.13" width="84.26" height="84.26" transform="translate(-70.11 337.26) rotate(-45)"/><rect class="cls-4" x="463.49" y="211.13" width="84.26" height="84.26" transform="translate(-30.99 431.71) rotate(-45)"/><rect class="cls-4" x="597.07" y="211.13" width="84.26" height="84.26" transform="translate(8.13 526.16) rotate(-45)"/><rect class="cls-4" x="730.64" y="211.13" width="84.26" height="84.26" transform="translate(47.25 620.61) rotate(-45)"/><rect class="cls-4" x="864.21" y="211.13" width="84.26" height="84.26" transform="translate(86.37 715.06) rotate(-45)"/><rect class="cls-4" x="997.78" y="211.13" width="84.26" height="84.26" transform="translate(125.49 809.5) rotate(-45)"/><polygon class="cls-4" points="1200 220.2 1173.49 193.68 1113.91 253.26 1173.49 312.85 1200 286.33 1200 220.2"/><polygon class="cls-4" points="38.12 117.38 0 155.5 0 198.43 38.12 236.54 97.7 176.96 38.12 117.38"/><rect class="cls-4" x="129.56" y="134.83" width="84.26" height="84.26" transform="translate(-74.84 173.24) rotate(-45)"/><rect class="cls-4" x="263.13" y="134.83" width="84.26" height="84.26" transform="translate(-35.72 267.68) rotate(-45)"/><rect class="cls-4" x="396.71" y="134.83" width="84.26" height="84.26" transform="translate(3.4 362.13) rotate(-45)"/><rect class="cls-4" x="530.28" y="134.83" width="84.26" height="84.26" transform="translate(42.52 456.58) rotate(-45)"/><rect class="cls-4" x="663.85" y="134.83" width="84.26" height="84.26" transform="translate(81.65 551.04) rotate(-45)"/><rect class="cls-4" x="797.43" y="134.83" width="84.26" height="84.26" transform="translate(120.77 645.49) rotate(-45)"/><rect class="cls-4" x="931" y="134.83" width="84.26" height="84.26" transform="translate(159.89 739.93) rotate(-45)"/><rect class="cls-4" x="1064.57" y="134.83" width="84.26" height="84.26" transform="translate(199.01 834.38) rotate(-45)"/><polygon class="cls-4" points="1200 157.66 1180.69 176.96 1200 196.27 1200 157.66"/><polygon class="cls-4" points="0 69.75 0 131.57 30.91 100.66 0 69.75"/><rect class="cls-4" x="62.78" y="58.53" width="84.26" height="84.26" transform="translate(-40.45 103.66) rotate(-45)"/><rect class="cls-4" x="196.35" y="58.53" width="84.26" height="84.26" transform="translate(-1.33 198.11) rotate(-45)"/><rect class="cls-4" x="329.92" y="58.53" width="84.26" height="84.26" transform="translate(37.79 292.56) rotate(-45)"/><rect class="cls-4" x="463.49" y="58.53" width="84.26" height="84.26" transform="translate(76.91 387.01) rotate(-45)"/><rect class="cls-4" x="597.07" y="58.53" width="84.26" height="84.26" transform="translate(116.04 481.47) rotate(-45)"/><rect class="cls-4" x="730.64" y="58.53" width="84.26" height="84.26" transform="translate(155.16 575.92) rotate(-45)"/><rect class="cls-4" x="864.21" y="58.53" width="84.26" height="84.26" transform="translate(194.28 670.36) rotate(-45)"/><rect class="cls-4" x="997.78" y="58.53" width="84.26" height="84.26" transform="translate(233.4 764.8) rotate(-45)"/><polygon class="cls-4" points="1200 67.59 1173.49 41.08 1113.91 100.66 1173.49 160.24 1200 133.73 1200 67.59"/><polygon class="cls-4" points="73.34 0 2.9 0 0 2.9 0 45.82 38.12 83.94 97.7 24.36 73.34 0"/><polygon class="cls-4" points="136.47 0 112.11 24.36 171.69 83.94 231.27 24.36 206.92 0 136.47 0"/><polygon class="cls-4" points="270.04 0 245.68 24.36 305.26 83.94 364.85 24.36 340.49 0 270.04 0"/><polygon class="cls-4" points="403.61 0 379.26 24.36 438.84 83.94 498.42 24.36 474.06 0 403.61 0"/><polygon class="cls-4" points="537.19 0 512.83 24.36 572.41 83.94 631.99 24.36 607.63 0 537.19 0"/><polygon class="cls-4" points="670.76 0 646.4 24.36 705.98 83.94 765.56 24.36 741.21 0 670.76 0"/><polygon class="cls-4" points="804.33 0 779.98 24.36 839.56 83.94 899.14 24.36 874.78 0 804.33 0"/><polygon class="cls-4" points="937.9 0 913.55 24.36 973.13 83.94 1032.71 24.36 1008.35 0 937.9 0"/><polygon class="cls-4" points="1071.48 0 1047.12 24.36 1106.7 83.94 1166.28 24.36 1141.93 0 1071.48 0"/><polygon class="cls-4" points="1200 5.05 1180.69 24.36 1200 43.66 1200 5.05"/><polygon class="cls-4" points="97.27 0 104.91 7.64 112.54 0 97.27 0"/><polygon class="cls-4" points="230.84 0 238.48 7.64 246.12 0 230.84 0"/><polygon class="cls-4" points="364.42 0 372.05 7.64 379.69 0 364.42 0"/><polygon class="cls-4" points="497.99 0 505.62 7.64 513.26 0 497.99 0"/><polygon class="cls-4" points="631.56 0 639.2 7.64 646.83 0 631.56 0"/><polygon class="cls-4" points="765.13 0 772.77 7.64 780.41 0 765.13 0"/><polygon class="cls-4" points="898.71 0 906.34 7.64 913.98 0 898.71 0"/><polygon class="cls-4" points="1032.28 0 1039.91 7.64 1047.55 0 1032.28 0"/><polygon class="cls-4" points="1165.85 0 1173.49 7.64 1181.12 0 1165.85 0"/></g><polygon class="cls-4" points="59.53 1200 38.12 1178.59 16.7 1200 59.53 1200"/><polygon class="cls-4" points="193.11 1200 171.69 1178.59 150.28 1200 193.11 1200"/><polygon class="cls-4" points="326.68 1200 305.26 1178.59 283.85 1200 326.68 1200"/><polygon class="cls-4" points="460.25 1200 438.84 1178.59 417.42 1200 460.25 1200"/><polygon class="cls-4" points="593.83 1200 572.41 1178.59 551 1200 593.83 1200"/><polygon class="cls-4" points="727.4 1200 705.98 1178.59 684.57 1200 727.4 1200"/><polygon class="cls-4" points="860.97 1200 839.56 1178.59 818.14 1200 860.97 1200"/><polygon class="cls-4" points="994.54 1200 973.13 1178.59 951.71 1200 994.54 1200"/><polygon class="cls-4" points="1128.12 1200 1106.7 1178.59 1085.29 1200 1128.12 1200"/><polygon class="cls-4" points="0 1130.95 0 1192.78 30.91 1161.86 0 1130.95"/><polygon class="cls-4" points="126.35 1200 164.49 1161.86 104.91 1102.28 45.32 1161.86 83.46 1200 126.35 1200"/><polygon class="cls-4" points="259.93 1200 298.06 1161.86 238.48 1102.28 178.9 1161.86 217.03 1200 259.93 1200"/><polygon class="cls-4" points="393.5 1200 431.63 1161.86 372.05 1102.28 312.47 1161.86 350.61 1200 393.5 1200"/><polygon class="cls-4" points="527.07 1200 565.21 1161.86 505.62 1102.28 446.04 1161.86 484.18 1200 527.07 1200"/><polygon class="cls-4" points="660.64 1200 698.78 1161.86 639.2 1102.28 579.62 1161.86 617.75 1200 660.64 1200"/><polygon class="cls-4" points="794.22 1200 832.35 1161.86 772.77 1102.28 713.19 1161.86 751.32 1200 794.22 1200"/><polygon class="cls-4" points="927.79 1200 965.92 1161.86 906.34 1102.28 846.76 1161.86 884.9 1200 927.79 1200"/><polygon class="cls-4" points="1061.36 1200 1099.5 1161.86 1039.91 1102.28 980.33 1161.86 1018.47 1200 1061.36 1200"/><polygon class="cls-4" points="1194.93 1200 1200 1194.93 1200 1128.8 1173.49 1102.28 1113.91 1161.86 1152.04 1200 1194.93 1200"/><polygon class="cls-4" points="38.12 1025.98 0 1064.1 0 1107.02 38.12 1145.14 97.7 1085.56 38.12 1025.98"/><rect class="cls-4" x="129.56" y="1043.43" width="84.26" height="84.26" transform="translate(-717.32 439.36) rotate(-45)"/><rect class="cls-4" x="263.13" y="1043.43" width="84.26" height="84.26" transform="translate(-678.19 533.8) rotate(-45)"/><rect class="cls-4" x="396.71" y="1043.43" width="84.26" height="84.26" transform="translate(-639.07 628.25) rotate(-45)"/><rect class="cls-4" x="530.28" y="1043.43" width="84.26" height="84.26" transform="translate(-599.95 722.7) rotate(-45)"/><rect class="cls-4" x="663.85" y="1043.43" width="84.26" height="84.26" transform="translate(-560.83 817.16) rotate(-45)"/><rect class="cls-4" x="797.43" y="1043.43" width="84.26" height="84.26" transform="translate(-521.71 911.61) rotate(-45)"/><rect class="cls-4" x="931" y="1043.43" width="84.26" height="84.26" transform="translate(-482.58 1006.05) rotate(-45)"/><rect class="cls-4" x="1064.57" y="1043.43" width="84.26" height="84.26" transform="translate(-443.46 1100.5) rotate(-45)"/><polygon class="cls-4" points="1200 1066.25 1180.69 1085.56 1200 1104.87 1200 1066.25"/><polygon class="cls-4" points="0 978.35 0 1040.17 30.91 1009.26 0 978.35"/><rect class="cls-4" x="62.78" y="967.13" width="84.26" height="84.26" transform="translate(-682.93 369.78) rotate(-45)"/><rect class="cls-4" x="196.35" y="967.13" width="84.26" height="84.26" transform="translate(-643.8 464.23) rotate(-45)"/><rect class="cls-4" x="329.92" y="967.13" width="84.26" height="84.26" transform="translate(-604.68 558.69) rotate(-45)"/><rect class="cls-4" x="463.49" y="967.13" width="84.26" height="84.26" transform="translate(-565.56 653.13) rotate(-45)"/><rect class="cls-4" x="597.07" y="967.13" width="84.26" height="84.26" transform="translate(-526.44 747.6) rotate(-45)"/><rect class="cls-4" x="730.64" y="967.13" width="84.26" height="84.26" transform="translate(-487.32 842.05) rotate(-45)"/><rect class="cls-4" x="864.21" y="967.13" width="84.26" height="84.26" transform="translate(-448.19 936.49) rotate(-45)"/><rect class="cls-4" x="997.78" y="967.13" width="84.26" height="84.26" transform="translate(-409.07 1030.92) rotate(-45)"/><polygon class="cls-4" points="1200 976.19 1173.49 949.68 1113.91 1009.26 1173.49 1068.84 1200 1042.33 1200 976.19"/><polygon class="cls-4" points="38.12 873.38 0 911.5 0 954.42 38.12 992.54 97.7 932.96 38.12 873.38"/><rect class="cls-4" x="129.56" y="890.83" width="84.26" height="84.26" transform="translate(-609.41 394.66) rotate(-45)"/><rect class="cls-4" x="263.13" y="890.83" width="84.26" height="84.26" transform="translate(-570.29 489.11) rotate(-45)"/><rect class="cls-4" x="396.71" y="890.83" width="84.26" height="84.26" transform="translate(-531.17 583.56) rotate(-45)"/><rect class="cls-4" x="530.28" y="890.83" width="84.26" height="84.26" transform="translate(-492.04 678.01) rotate(-45)"/><rect class="cls-4" x="663.85" y="890.83" width="84.26" height="84.26" transform="translate(-452.92 772.47) rotate(-45)"/><rect class="cls-4" x="797.43" y="890.83" width="84.26" height="84.26" transform="translate(-413.8 866.92) rotate(-45)"/><rect class="cls-4" x="931" y="890.83" width="84.26" height="84.26" transform="translate(-374.68 961.36) rotate(-45)"/><rect class="cls-4" x="1064.57" y="890.83" width="84.26" height="84.26" transform="translate(-335.55 1055.81) rotate(-45)"/><polygon class="cls-4" points="1200 913.65 1180.69 932.96 1200 952.26 1200 913.65"/><polygon class="cls-4" points="0 825.74 0 887.57 30.91 856.65 0 825.74"/><rect class="cls-4" x="62.78" y="814.52" width="84.26" height="84.26" transform="translate(-575.02 325.08) rotate(-45)"/><rect class="cls-4" x="196.35" y="814.52" width="84.26" height="84.26" transform="translate(-535.89 419.53) rotate(-45)"/><rect class="cls-4" x="329.92" y="814.52" width="84.26" height="84.26" transform="translate(-496.77 513.99) rotate(-45)"/><rect class="cls-4" x="463.49" y="814.52" width="84.26" height="84.26" transform="translate(-457.65 608.43) rotate(-45)"/><rect class="cls-4" x="597.07" y="814.52" width="84.26" height="84.26" transform="translate(-418.53 702.89) rotate(-45)"/><rect class="cls-4" x="730.64" y="814.52" width="84.26" height="84.26" transform="translate(-379.41 797.34) rotate(-45)"/><rect class="cls-4" x="864.21" y="814.52" width="84.26" height="84.26" transform="translate(-340.28 891.78) rotate(-45)"/><rect class="cls-4" x="997.78" y="814.52" width="84.26" height="84.26" transform="translate(-301.16 986.22) rotate(-45)"/><polygon class="cls-4" points="1200 823.59 1173.49 797.07 1113.91 856.65 1173.49 916.24 1200 889.72 1200 823.59"/><polygon class="cls-4" points="38.12 720.77 0 758.89 0 801.81 38.12 839.93 97.7 780.35 38.12 720.77"/><rect class="cls-4" x="129.56" y="738.22" width="84.26" height="84.26" transform="translate(-501.5 349.96) rotate(-45)"/><rect class="cls-4" x="263.13" y="738.22" width="84.26" height="84.26" transform="translate(-462.38 444.4) rotate(-45)"/><rect class="cls-4" x="396.71" y="738.22" width="84.26" height="84.26" transform="translate(-423.26 538.86) rotate(-45)"/><rect class="cls-4" x="530.28" y="738.22" width="84.26" height="84.26" transform="translate(-384.14 633.31) rotate(-45)"/><rect class="cls-4" x="663.85" y="738.22" width="84.26" height="84.26" transform="translate(-345.01 727.76) rotate(-45)"/><rect class="cls-4" x="797.43" y="738.22" width="84.26" height="84.26" transform="translate(-305.89 822.21) rotate(-45)"/><rect class="cls-4" x="931" y="738.22" width="84.26" height="84.26" transform="translate(-266.77 916.65) rotate(-45)"/><rect class="cls-4" x="1064.57" y="738.22" width="84.26" height="84.26" transform="translate(-227.65 1011.1) rotate(-45)"/><polygon class="cls-4" points="1200 761.04 1180.69 780.35 1200 799.66 1200 761.04"/><polygon class="cls-4" points="0 673.13 0 734.97 30.91 704.05 0 673.13"/><rect class="cls-4" x="62.78" y="661.92" width="84.26" height="84.26" transform="translate(-467.11 280.39) rotate(-45)"/><rect class="cls-4" x="196.35" y="661.92" width="84.26" height="84.26" transform="translate(-427.99 374.83) rotate(-45)"/><rect class="cls-4" x="329.92" y="661.92" width="84.26" height="84.26" transform="translate(-388.87 469.29) rotate(-45)"/><rect class="cls-4" x="463.49" y="661.92" width="84.26" height="84.26" transform="translate(-349.74 563.73) rotate(-45)"/><rect class="cls-4" x="597.07" y="661.92" width="84.26" height="84.26" transform="translate(-310.62 658.19) rotate(-45)"/><rect class="cls-4" x="730.64" y="661.92" width="84.26" height="84.26" transform="translate(-271.5 752.64) rotate(-45)"/><rect class="cls-4" x="864.21" y="661.92" width="84.26" height="84.26" transform="translate(-232.38 847.08) rotate(-45)"/><rect class="cls-4" x="997.78" y="661.92" width="84.26" height="84.26" transform="translate(-193.26 941.52) rotate(-45)"/><polygon class="cls-4" points="1200 670.98 1173.49 644.47 1113.91 704.05 1173.49 763.63 1200 737.12 1200 670.98"/><polygon class="cls-4" points="38.12 568.17 0 606.28 0 649.21 38.12 687.33 97.7 627.75 38.12 568.17"/><rect class="cls-4" x="129.56" y="585.62" width="84.26" height="84.26" transform="translate(-393.6 305.27) rotate(-45)"/><rect class="cls-4" x="263.13" y="585.62" width="84.26" height="84.26" transform="translate(-354.47 399.71) rotate(-45)"/><rect class="cls-4" x="396.71" y="585.62" width="84.26" height="84.26" transform="translate(-315.35 494.17) rotate(-45)"/><rect class="cls-4" x="530.28" y="585.62" width="84.26" height="84.26" transform="translate(-276.23 588.62) rotate(-45)"/><rect class="cls-4" x="663.85" y="585.62" width="84.26" height="84.26" transform="translate(-237.11 683.08) rotate(-45)"/><rect class="cls-4" x="797.43" y="585.62" width="84.26" height="84.26" transform="translate(-197.98 777.53) rotate(-45)"/><rect class="cls-4" x="931" y="585.62" width="84.26" height="84.26" transform="translate(-158.86 871.97) rotate(-45)"/><rect class="cls-4" x="1064.57" y="585.62" width="84.26" height="84.26" transform="translate(-119.74 966.42) rotate(-45)"/><polygon class="cls-4" points="1200 608.44 1180.69 627.75 1200 647.05 1200 608.44"/><polygon class="cls-4" points="0 520.53 0 582.36 30.91 551.44 0 520.53"/><rect class="cls-4" x="62.78" y="509.31" width="84.26" height="84.26" transform="translate(-359.2 235.69) rotate(-45)"/><rect class="cls-4" x="196.35" y="509.31" width="84.26" height="84.26" transform="translate(-320.08 330.14) rotate(-45)"/><rect class="cls-4" x="329.92" y="509.31" width="84.26" height="84.26" transform="translate(-280.96 424.59) rotate(-45)"/><rect class="cls-4" x="463.49" y="509.31" width="84.26" height="84.26" transform="translate(-241.84 519.04) rotate(-45)"/><rect class="cls-4" x="597.07" y="509.31" width="84.26" height="84.26" transform="translate(-202.71 613.5) rotate(-45)"/><rect class="cls-4" x="730.64" y="509.31" width="84.26" height="84.26" transform="translate(-163.59 707.94) rotate(-45)"/><rect class="cls-4" x="864.21" y="509.31" width="84.26" height="84.26" transform="translate(-124.47 802.39) rotate(-45)"/><rect class="cls-4" x="997.78" y="509.31" width="84.26" height="84.26" transform="translate(-85.35 896.83) rotate(-45)"/><polygon class="cls-4" points="1200 518.38 1173.49 491.86 1113.91 551.44 1173.49 611.02 1200 584.51 1200 518.38"/><polygon class="cls-4" points="38.12 415.56 0 453.68 0 496.6 38.12 534.72 97.7 475.14 38.12 415.56"/><rect class="cls-4" x="129.56" y="433.01" width="84.26" height="84.26" transform="translate(-285.69 260.57) rotate(-45)"/><rect class="cls-4" x="263.13" y="433.01" width="84.26" height="84.26" transform="translate(-246.57 355.02) rotate(-45)"/><rect class="cls-4" x="396.71" y="433.01" width="84.26" height="84.26" transform="translate(-207.44 449.47) rotate(-45)"/><rect class="cls-4" x="530.28" y="433.01" width="84.26" height="84.26" transform="translate(-168.32 543.92) rotate(-45)"/><rect class="cls-4" x="663.85" y="433.01" width="84.26" height="84.26" transform="translate(-129.2 638.37) rotate(-45)"/><rect class="cls-4" x="797.43" y="433.01" width="84.26" height="84.26" transform="translate(-90.07 732.83) rotate(-45)"/><rect class="cls-4" x="931" y="433.01" width="84.26" height="84.26" transform="translate(-50.96 827.27) rotate(-45)"/><rect class="cls-4" x="1064.57" y="433.01" width="84.26" height="84.26" transform="translate(-11.83 921.72) rotate(-45)"/><polygon class="cls-4" points="1200 455.83 1180.69 475.14 1200 494.45 1200 455.83"/><polygon class="cls-4" points="0 367.93 0 429.75 30.91 398.84 0 367.93"/><rect class="cls-4" x="62.78" y="356.71" width="84.26" height="84.26" transform="translate(-251.29 191) rotate(-45)"/><rect class="cls-4" x="196.35" y="356.71" width="84.26" height="84.26" transform="translate(-212.17 285.44) rotate(-45)"/><rect class="cls-4" x="329.92" y="356.71" width="84.26" height="84.26" transform="translate(-173.05 379.9) rotate(-45)"/><rect class="cls-4" x="463.49" y="356.71" width="84.26" height="84.26" transform="translate(-133.93 474.34) rotate(-45)"/><rect class="cls-4" x="597.07" y="356.71" width="84.26" height="84.26" transform="translate(-94.8 568.8) rotate(-45)"/><rect class="cls-4" x="730.64" y="356.71" width="84.26" height="84.26" transform="translate(-55.68 663.25) rotate(-45)"/><rect class="cls-4" x="864.21" y="356.71" width="84.26" height="84.26" transform="translate(-16.56 757.69) rotate(-45)"/><rect class="cls-4" x="997.78" y="356.71" width="84.26" height="84.26" transform="translate(22.56 852.14) rotate(-45)"/><polygon class="cls-4" points="1200 365.77 1173.49 339.26 1113.91 398.84 1173.49 458.42 1200 431.91 1200 365.77"/><polygon class="cls-4" points="38.12 262.95 0 301.07 0 344 38.12 382.12 97.7 322.54 38.12 262.95"/><rect class="cls-4" x="129.56" y="280.41" width="84.26" height="84.26" transform="translate(-177.78 215.87) rotate(-45)"/><rect class="cls-4" x="263.13" y="280.41" width="84.26" height="84.26" transform="translate(-138.66 310.32) rotate(-45)"/><rect class="cls-4" x="396.71" y="280.41" width="84.26" height="84.26" transform="translate(-99.54 404.77) rotate(-45)"/><rect class="cls-4" x="530.28" y="280.41" width="84.26" height="84.26" transform="translate(-60.41 499.22) rotate(-45)"/><rect class="cls-4" x="663.85" y="280.41" width="84.26" height="84.26" transform="translate(-21.29 593.68) rotate(-45)"/><rect class="cls-4" x="797.43" y="280.41" width="84.26" height="84.26" transform="translate(17.83 688.13) rotate(-45)"/><rect class="cls-4" x="931" y="280.41" width="84.26" height="84.26" transform="translate(56.95 782.57) rotate(-45)"/><rect class="cls-4" x="1064.57" y="280.41" width="84.26" height="84.26" transform="translate(96.08 877.02) rotate(-45)"/><polygon class="cls-4" points="1200 303.23 1180.69 322.54 1200 341.84 1200 303.23"/><polygon class="cls-4" points="0 215.32 0 277.15 30.91 246.23 0 215.32"/><rect class="cls-4" x="62.78" y="204.1" width="84.26" height="84.26" transform="translate(-143.39 146.3) rotate(-45)"/><rect class="cls-4" x="196.35" y="204.1" width="84.26" height="84.26" transform="translate(-104.27 240.75) rotate(-45)"/><rect class="cls-4" x="329.92" y="204.1" width="84.26" height="84.26" transform="translate(-65.14 335.2) rotate(-45)"/><rect class="cls-4" x="463.49" y="204.1" width="84.26" height="84.26" transform="translate(-26.02 429.65) rotate(-45)"/><rect class="cls-4" x="597.07" y="204.1" width="84.26" height="84.26" transform="translate(13.1 524.1) rotate(-45)"/><rect class="cls-4" x="730.64" y="204.1" width="84.26" height="84.26" transform="translate(52.23 618.55) rotate(-45)"/><rect class="cls-4" x="864.21" y="204.1" width="84.26" height="84.26" transform="translate(91.35 713) rotate(-45)"/><rect class="cls-4" x="997.78" y="204.1" width="84.26" height="84.26" transform="translate(130.46 807.44) rotate(-45)"/><polygon class="cls-4" points="1200 213.16 1173.49 186.65 1113.91 246.23 1173.49 305.82 1200 279.3 1200 213.16"/><polygon class="cls-4" points="38.12 110.35 0 148.47 0 191.39 38.12 229.51 97.7 169.93 38.12 110.35"/><rect class="cls-4" x="129.56" y="127.8" width="84.26" height="84.26" transform="translate(-69.87 171.18) rotate(-45)"/><rect class="cls-4" x="263.13" y="127.8" width="84.26" height="84.26" transform="translate(-30.75 265.62) rotate(-45)"/><rect class="cls-4" x="396.71" y="127.8" width="84.26" height="84.26" transform="translate(8.37 360.08) rotate(-45)"/><rect class="cls-4" x="530.28" y="127.8" width="84.26" height="84.26" transform="translate(47.49 454.53) rotate(-45)"/><rect class="cls-4" x="663.85" y="127.8" width="84.26" height="84.26" transform="translate(86.62 548.98) rotate(-45)"/><rect class="cls-4" x="797.43" y="127.8" width="84.26" height="84.26" transform="translate(125.74 643.43) rotate(-45)"/><rect class="cls-4" x="931" y="127.8" width="84.26" height="84.26" transform="translate(164.86 737.87) rotate(-45)"/><rect class="cls-4" x="1064.57" y="127.8" width="84.26" height="84.26" transform="translate(203.98 832.32) rotate(-45)"/><polygon class="cls-4" points="1200 150.62 1180.69 169.93 1200 189.24 1200 150.62"/><polygon class="cls-4" points="0 62.72 0 124.54 30.91 93.63 0 62.72"/><rect class="cls-4" x="62.78" y="51.5" width="84.26" height="84.26" transform="translate(-35.48 101.6) rotate(-45)"/><rect class="cls-4" x="196.35" y="51.5" width="84.26" height="84.26" transform="translate(3.64 196.05) rotate(-45)"/><rect class="cls-4" x="329.92" y="51.5" width="84.26" height="84.26" transform="translate(42.77 290.5) rotate(-45)"/><rect class="cls-4" x="463.49" y="51.5" width="84.26" height="84.26" transform="translate(81.89 384.95) rotate(-45)"/><rect class="cls-4" x="597.07" y="51.5" width="84.26" height="84.26" transform="translate(121.01 479.41) rotate(-45)"/><rect class="cls-4" x="730.64" y="51.5" width="84.26" height="84.26" transform="translate(160.13 573.86) rotate(-45)"/><rect class="cls-4" x="864.21" y="51.5" width="84.26" height="84.26" transform="translate(199.25 668.3) rotate(-45)"/><rect class="cls-4" x="997.78" y="51.5" width="84.26" height="84.26" transform="translate(238.37 762.74) rotate(-45)"/><polygon class="cls-4" points="1200 60.56 1173.49 34.05 1113.91 93.63 1173.49 153.21 1200 126.7 1200 60.56"/><polygon class="cls-4" points="80.37 0 0 0 0 38.79 38.12 76.91 97.7 17.33 80.37 0"/><polygon class="cls-4" points="129.44 0 112.11 17.33 171.69 76.91 231.27 17.33 213.95 0 129.44 0"/><polygon class="cls-4" points="263.01 0 245.68 17.33 305.26 76.91 364.85 17.33 347.52 0 263.01 0"/><polygon class="cls-4" points="396.58 0 379.26 17.33 438.84 76.91 498.42 17.33 481.09 0 396.58 0"/><polygon class="cls-4" points="530.15 0 512.83 17.33 572.41 76.91 631.99 17.33 614.66 0 530.15 0"/><polygon class="cls-4" points="663.73 0 646.4 17.33 705.98 76.91 765.56 17.33 748.24 0 663.73 0"/><polygon class="cls-4" points="797.3 0 779.98 17.33 839.56 76.91 899.14 17.33 881.81 0 797.3 0"/><polygon class="cls-4" points="930.87 0 913.55 17.33 973.13 76.91 1032.71 17.33 1015.38 0 930.87 0"/><polygon class="cls-4" points="1064.45 0 1047.12 17.33 1106.7 76.91 1166.28 17.33 1148.96 0 1064.45 0"/><polygon class="cls-4" points="1200 0 1198.02 0 1180.69 17.33 1200 36.63 1200 0"/></g></g></g></svg>