<svg id="Réteg_1" data-name="Réteg 1" xmlns="http://www.w3.org/2000/svg" viewBox="0 0 504.4 504"><defs><style>.cls-1{fill:#1b1e21;}.cls-2{fill:#fff;}</style></defs><title>instagram-logo-black-white-vector</title><rect class="cls-1" width="504" height="504"/><g id="Réteg_2" data-name="Réteg 2"><g id="Layer_1" data-name="Layer 1"><path class="cls-2" d="M296.8,219.6a54.86,54.86,0,0,0-89.6,0A56.88,56.88,0,0,0,196.8,252a55.2,55.2,0,0,0,110.4,0A56.88,56.88,0,0,0,296.8,219.6Z"/><path class="cls-2" d="M331.6,220c4,8,6.4,20.8,6.4,32a86,86,0,0,1-172,0c0-11.6,2.4-24,6.4-32H124V348.4c0,16.8,14.8,31.6,31.6,31.6H348.4c16.8,0,31.6-14.8,31.6-31.6V220Z"/><polygon class="cls-2" points="365.6 131.2 319.2 131.2 319.2 184.4 372 184.4 372 138 372 130.8 365.6 131.2"/><path class="cls-2" d="M377.6,0H126.4C56.8,0,0,56.8,0,126.4V378c0,69.2,56.8,126,126.4,126H378c69.6,0,126.4-56.8,126.4-126.4V126.4C504,56.8,447.2,0,377.6,0ZM408,219.6h0V348.4c0,33.6-26,59.6-59.6,59.6H155.6C122,408,96,382,96,348.4V155.6C96,122,122,96,155.6,96H348.4C382,96,408,122,408,155.6Z"/></g></g></svg>