<svg xmlns="http://www.w3.org/2000/svg" viewBox="0 0 494.64 401.78"><defs><style>.cls-1{fill:#fff;}.cls-2{fill:#1d1d1d;}</style></defs><title>Eszköz 2news-feed-icon-bw</title><g id="Réteg_2" data-name="Réteg 2"><g id="Réteg_1" data-name="Réteg 1"><path class="cls-1" d="M494.64,61.58V350.42c-.62,2.79-1.33,5.56-1.85,8.36-5.14,27.39-25.78,43.06-50.7,43-125.22-.34-250.44-.15-375.67-.17-3.85,0-7.72-.14-11.57-.43-11.11-.85-21.56-3.82-30.53-10.66C6.89,377.23.21,358.56.16,337.64Q-.23,171.29,0,5V0H432.88V61.58ZM412.35,370.71c-9.88-12.1-10.5-25.48-10.49-39.14q.11-147.3,0-294.62V30.9H31V336.24c0,1.6,0,3.22.09,4.82.9,13.67,8.53,24.68,20,27.93a51.09,51.09,0,0,0,13.8,1.65q170.73.14,341.46.07Z"/><path class="cls-2" d="M412.35,370.71h-6q-170.73,0-341.46-.07A51.09,51.09,0,0,1,51.06,369c-11.49-3.25-19.12-14.26-20-27.93-.11-1.6-.09-3.22-.09-4.82V30.9h371V37q0,147.32,0,294.62C401.85,345.23,402.47,358.61,412.35,370.71Zm-211.72-62v-154H62.11v154ZM62.1,123.09H370.6V92.73H62.1Zm308.66,31.56H232.27V185H370.76ZM232.11,246.73H370.6V216.39H232.11ZM339.85,278.3H232.27v30.34H339.85Z"/><path class="cls-1" d="M200.63,308.66H62.11v-154H200.63Z"/><path class="cls-1" d="M62.1,123.09V92.73H370.6v30.36Z"/><path class="cls-1" d="M370.76,154.65V185H232.27V154.65Z"/><path class="cls-1" d="M232.11,246.73V216.39H370.6v30.34Z"/><path class="cls-1" d="M339.85,278.3v30.34H232.27V278.3Z"/></g></g></svg>