<svg xmlns="http://www.w3.org/2000/svg" viewBox="0 0 59.08 92.17"><defs><style>.cls-1{fill:#fff;}</style></defs><title>Eszköz 3scout-lily-one</title><g id="Réteg_2" data-name="Réteg 2"><g id="Réteg_1" data-name="Réteg 1"><path class="cls-1" d="M31.34,54c.25-1.35.46-2.74.76-4.12A42.39,42.39,0,0,1,37,36.61c3.44-5.69,10.69-7.69,15.16-6.77,2.77.57,5.83,2.39,6.36,6.25a38,38,0,0,1,.52,6C59,46.38,56.7,49,52.51,50l-.78.15c.48-.92.93-1.77,1.37-2.63A10.82,10.82,0,0,0,54.41,43c.08-2.56-1.2-4-3.76-4.16a11,11,0,0,0-7.53,2.69c-3.75,2.94-5.74,7-6.77,11.51-.26,1.18-.42,2.38-.65,3.69l-12.79-.82A12,12,0,0,0,22.59,53a24.45,24.45,0,0,0-1.89-4.17,26.87,26.87,0,0,0-6.64-8,12.24,12.24,0,0,0-5.69-2.68c-2.7-.43-4.2.83-4.33,3.57a17.41,17.41,0,0,0,1.61,7.72,3.82,3.82,0,0,1,.24.55c.15.51-.17.89-.62.64a7.44,7.44,0,0,1-2.15-1.58A12.17,12.17,0,0,1,.32,38.26,28.38,28.38,0,0,1,1.64,33.7c1.69-4.09,5-5.61,9.29-4.36a19.87,19.87,0,0,1,9.3,6.4A27.84,27.84,0,0,1,27,52.9c0,.32.06.65.09,1H28.1l.54-6.23c.3-3.46-1.07-6.47-2.57-9.44s-3-5.66-4.39-8.55a26,26,0,0,1-2.74-11.47,14,14,0,0,1,3-8.7C24.07,6.78,26,3.91,28,1.09A10.16,10.16,0,0,0,28.62,0c.59.72,1.13,1.41,1.7,2.07.76.87,1.53,1.74,2.33,2.58A20.66,20.66,0,0,1,38.5,21.54a29.16,29.16,0,0,1-2.81,9.85,54.72,54.72,0,0,0-5,15.65c-.28,1.94-.24,3.93-.34,5.89C30.3,53.59,30.58,54,31.34,54ZM28.68,4.11l-.25,0a11.75,11.75,0,0,0-.08,1.67c.37,3.84.85,7.67,1.16,11.51.33,4.15.6,8.3.75,12.46a45.84,45.84,0,0,1-.38,9.29A3.06,3.06,0,0,0,30,40h.32a35.42,35.42,0,0,0,.51-4.09c0-3.13,0-6.26-.11-9.39,0-1.71-.06-3.43-.23-5.14C30,16.14,29.44,10.93,28.89,5.71,28.84,5.18,28.75,4.65,28.68,4.11ZM57,35.17l.14-.16a8.52,8.52,0,0,0-.52-1.24,4.27,4.27,0,0,0-1.09-1.46,7.34,7.34,0,0,0-5.71-1.13q-3.69.83-7.36,1.73a1.5,1.5,0,0,0-.77.52c-.14.18-.09.51-.12.77a2.91,2.91,0,0,0,.78,0c1.54-.46,3-1.06,4.6-1.4,2.43-.54,4.88-1.34,7.34.14a4.89,4.89,0,0,1,1.61,1.13A11.42,11.42,0,0,0,57,35.17ZM29.16,26.3l-.32-.09a5.44,5.44,0,0,0-.39.9,5.28,5.28,0,0,0-.09,1.13c0,2.84-.06,5.68,0,8.52a25.86,25.86,0,0,0,.3,2.76h.23a11.31,11.31,0,0,0,.34-1.9c0-2.11,0-4.23,0-6.35C29.15,29.62,29.16,28,29.16,26.3Zm23.68,7-.27.29a10.1,10.1,0,0,0,2.1,2.17A4.3,4.3,0,0,1,57,38.42a1,1,0,0,0,.61.63c.23,0,.51-.27.74-.4-.45-.83-.82-1.57-1.25-2.28a3.56,3.56,0,0,0-.93-1.21C55.07,34.49,53.94,33.93,52.84,33.33Z"/><path class="cls-1" d="M15.09,69.82c-.1-.26-.18-.51-.28-.77-.19-.53-.55-.65-1.08-.48-1.13.34-1.29.9-.53,1.8a5.9,5.9,0,0,0,9.26-.58c.46-.72.77-1.53,1.19-2.28.1-.18.34-.4.51-.4.91,0,1.81.08,2.71.14,0,.13.08.2.07.26A21,21,0,0,1,22,76.7a9.13,9.13,0,0,1-12.45.61,11,11,0,0,1-4-6.6c-.66-3,2.52-6.33,4.8-6.74a6.54,6.54,0,0,1,3.51.17,3.77,3.77,0,0,1,1.73,5.3c-.11.17-.21.35-.31.52Z"/><path class="cls-1" d="M40.63,66.68c.14-.22.19-.4.32-.49,2.46-1.84,5.11-3,8.25-2,3.88,1.18,5.6,4.73,4.19,8.64a8.07,8.07,0,0,1-6,5.45,16.19,16.19,0,0,1-7.64.28,8.54,8.54,0,0,1-5.81-4.27,53,53,0,0,1-2.36-5.78c-.24-.62-.12-1.07.71-1.09a15.49,15.49,0,0,0,2.25-.25c.52-.08.71.12.85.58a9.48,9.48,0,0,0,2.29,4c1.79,1.75,5.7,1.66,7.28-.28a6.51,6.51,0,0,0,.79-2.31.58.58,0,0,0-.26-.48c-1.05-.6-2.09-1.22-3.19-1.72A6.12,6.12,0,0,0,40.63,66.68Zm-1.4,10.08a14.56,14.56,0,0,0,5.92.77c4.38-.37,6.06-2.32,7.63-7,0-.09.09-.21.06-.29s-.19-.43-.29-.65a2.24,2.24,0,0,0-.47.45,4.24,4.24,0,0,0-.37.91A9.46,9.46,0,0,1,47.51,76a4.14,4.14,0,0,1-2.49.73C43.09,76.73,41.16,76.76,39.23,76.76Zm8.6-11.5c.44.52.69,1.09,1.12,1.28A2.26,2.26,0,0,1,50.32,69c0,.66-.17,1.3-.26,2l.13.06L52,67.74Z"/><path class="cls-1" d="M32,66.9c-3.36-.37-6.73-.65-10.07-1.15a4.7,4.7,0,0,1-4.13-3.51,2.67,2.67,0,0,1,1.29-3.37,10,10,0,0,1,4.49-1.49,29.48,29.48,0,0,1,14.49,1.73,1.39,1.39,0,0,1,.28.12c.76.5,1.92.61,2.07,1.76a4.08,4.08,0,0,1-1.55,4.17,8.67,8.67,0,0,1-4.36,1.36c-.83.09-1.66.11-2.49.16ZM21.36,64.05l-.08.39a5.57,5.57,0,0,0,1.14.41c1.5.17,3,.24,4.51.42a31.17,31.17,0,0,0,10-.5,3.12,3.12,0,0,0,2.53-2.56,1.58,1.58,0,0,0-.4-1.69,7.8,7.8,0,0,0-4-1.57.55.55,0,0,0-.45.28.58.58,0,0,0,.26.46,2.11,2.11,0,0,0,.7.26c.78.18,1.58.31,2.35.53,1.1.31,1.12.38.75,1.45a5.63,5.63,0,0,0-.14.59c-.23,1.2-.5,1.47-1.72,1.58-2.29.22-4.58.36-6.86.6-2.45.26-4.81-.38-7.21-.64A12.5,12.5,0,0,0,21.36,64.05Z"/><path class="cls-1" d="M29.35,92.17a12.13,12.13,0,0,1-3.81-11.86c-2.14.55-4.13,1.42-6.4,1l.61-.47,5.61-4.62a6.61,6.61,0,0,0,2.52-4.95,32.42,32.42,0,0,1,.67-3.92c1.27-.11,1.41,0,1.69,1.07.12.49.25,1,.36,1.47,1.1,4.69,4.32,7.75,8.08,10.36a14.66,14.66,0,0,0,2.06,1c-2.94.48-5.58-.32-8.25-1.36.07,1.21.18,2.37.21,3.54a14.1,14.1,0,0,1-.78,5.5A5.71,5.71,0,0,1,29.35,92.17Zm.35-2.11c.83-5.4-.11-10.66-.3-15.93a8.83,8.83,0,0,0-.25,3.79c.16,1.71.68,3.41.19,5.11C28.67,85.41,29.34,87.66,29.7,90.06Zm-1-10.57H28.4c-.34,1.77-1.19,3.51,0,5.34Z"/><path class="cls-1" d="M57,35.17a11.42,11.42,0,0,1-1.1-1.1,4.89,4.89,0,0,0-1.61-1.13c-2.46-1.48-4.91-.68-7.34-.14-1.56.34-3.06.94-4.6,1.4a2.91,2.91,0,0,1-.78,0c0-.26,0-.59.12-.77a1.5,1.5,0,0,1,.77-.52q3.68-.9,7.36-1.73a7.34,7.34,0,0,1,5.71,1.13,4.27,4.27,0,0,1,1.09,1.46A8.52,8.52,0,0,1,57.11,35Z"/><path class="cls-1" d="M52.84,33.33c1.1.6,2.23,1.16,3.28,1.83a3.56,3.56,0,0,1,.93,1.21c.43.71.8,1.45,1.25,2.28-.23.13-.51.44-.74.4a1,1,0,0,1-.61-.63,4.3,4.3,0,0,0-2.28-2.63,10.1,10.1,0,0,1-2.1-2.17Z"/><path class="cls-1" d="M39.23,76.76c1.93,0,3.86,0,5.79,0A4.14,4.14,0,0,0,47.51,76,9.46,9.46,0,0,0,51.71,71a4.24,4.24,0,0,1,.37-.91,2.24,2.24,0,0,1,.47-.45c.1.22.21.43.29.65s0,.2-.06.29c-1.57,4.66-3.25,6.61-7.63,7A14.56,14.56,0,0,1,39.23,76.76Z"/><path class="cls-1" d="M47.83,65.26,52,67.74,50.19,71,50.06,71c.09-.66.23-1.3.26-2A2.26,2.26,0,0,0,49,66.54C48.52,66.35,48.27,65.78,47.83,65.26Z"/><path class="cls-1" d="M28.67,79.49l-.26,5.33c-1.2-1.83-.35-3.57,0-5.34Z"/></g></g></svg>