<svg xmlns="http://www.w3.org/2000/svg" viewBox="0 0 101.12 126.05"><defs><style>.cls-1{fill:#fff;}</style></defs><title>Eszköz 2scout-lily-one</title><g id="Réteg_2" data-name="Réteg 2"><g id="Réteg_1" data-name="Réteg 1"><path class="cls-1" d="M52.19,72.56c.25-1.35.46-2.75.76-4.12a42.31,42.31,0,0,1,4.94-13.27c3.44-5.69,10.68-7.68,15.16-6.76,2.76.56,5.82,2.38,6.35,6.24a39.24,39.24,0,0,1,.53,6c-.08,4.29-2.38,6.93-6.57,7.9l-.77.16c.48-.93.93-1.78,1.36-2.63a10.82,10.82,0,0,0,1.31-4.55c.08-2.55-1.2-4-3.75-4.16A11,11,0,0,0,64,60.07c-3.75,3-5.74,7-6.76,11.51-.27,1.18-.43,2.39-.65,3.69l-12.8-.81a12.54,12.54,0,0,0-.31-2.86,25.78,25.78,0,0,0-1.9-4.18,26.77,26.77,0,0,0-6.63-8,12.32,12.32,0,0,0-5.7-2.68c-2.7-.43-4.2.82-4.33,3.57A17.37,17.37,0,0,0,26.5,68a5.62,5.62,0,0,1,.25.56c.14.51-.18.88-.63.63A7.22,7.22,0,0,1,24,67.63a12.14,12.14,0,0,1-2.8-10.8,29.44,29.44,0,0,1,1.32-4.56c1.69-4.1,5-5.61,9.29-4.36a19.8,19.8,0,0,1,9.3,6.39,27.88,27.88,0,0,1,6.73,17.17c0,.32,0,.64.08,1H49l.54-6.23c.31-3.46-1.07-6.47-2.57-9.44s-3-5.66-4.39-8.55A26.09,26.09,0,0,1,39.8,36.78a14,14,0,0,1,3-8.71c2.11-2.73,4-5.6,6.06-8.41a12.44,12.44,0,0,0,.6-1.09c.6.72,1.13,1.41,1.7,2.06.76.88,1.53,1.75,2.33,2.58a20.66,20.66,0,0,1,5.85,16.9A28.77,28.77,0,0,1,56.54,50a55.35,55.35,0,0,0-5,15.65c-.28,1.94-.24,3.92-.34,5.89C51.15,72.16,51.43,72.55,52.19,72.56ZM49.53,22.68h-.24a11.9,11.9,0,0,0-.09,1.68c.38,3.84.85,7.66,1.16,11.51.34,4.14.6,8.3.76,12.45a46.7,46.7,0,0,1-.38,9.3,3.09,3.09,0,0,0,.14.93h.32a36,36,0,0,0,.51-4.09c0-3.13,0-6.26-.11-9.39,0-1.72-.06-3.44-.23-5.14-.5-5.22-1.07-10.44-1.62-15.66C49.69,23.74,49.6,23.21,49.53,22.68ZM77.82,53.73l.14-.15a8.65,8.65,0,0,0-.52-1.25,4.23,4.23,0,0,0-1.09-1.45,7.24,7.24,0,0,0-5.7-1.13c-2.46.54-4.91,1.13-7.36,1.73a1.53,1.53,0,0,0-.78.51c-.13.19-.08.51-.11.77a2.5,2.5,0,0,0,.77,0c1.54-.46,3-1.07,4.61-1.41,2.43-.53,4.88-1.33,7.33.14a5.12,5.12,0,0,1,1.62,1.14A10.2,10.2,0,0,0,77.82,53.73ZM50,44.87l-.31-.09a5.41,5.41,0,0,0-.4.89,6.08,6.08,0,0,0-.09,1.13c0,2.84-.05,5.69,0,8.53,0,.92.2,1.84.3,2.75h.23a10.43,10.43,0,0,0,.34-1.89c0-2.12,0-4.23,0-6.35C50,48.19,50,46.53,50,44.87Zm23.68,7-.27.29a9.82,9.82,0,0,0,2.1,2.16A4.26,4.26,0,0,1,77.8,57a1,1,0,0,0,.61.64c.23,0,.52-.27.74-.41-.45-.83-.82-1.57-1.24-2.27A3.58,3.58,0,0,0,77,53.73C75.92,53.05,74.79,52.5,73.69,51.9Z"/><path class="cls-1" d="M35.94,88.39c-.09-.26-.18-.52-.28-.77-.19-.53-.55-.65-1.08-.49-1.12.35-1.29.9-.52,1.81a5.9,5.9,0,0,0,9.25-.58c.47-.72.78-1.53,1.19-2.28a.78.78,0,0,1,.52-.4c.9,0,1.8.08,2.71.13,0,.13.08.21.06.27a20.86,20.86,0,0,1-4.91,9.19,9.14,9.14,0,0,1-12.45.6,11.05,11.05,0,0,1-4-6.59c-.66-3,2.53-6.33,4.8-6.74a6.44,6.44,0,0,1,3.51.17A3.77,3.77,0,0,1,36.49,88l-.31.51Z"/><path class="cls-1" d="M61.49,85.25a1.89,1.89,0,0,1,.31-.5c2.46-1.83,5.11-3,8.25-2,3.89,1.18,5.6,4.73,4.19,8.65a8,8,0,0,1-6,5.44,16,16,0,0,1-7.63.28,8.53,8.53,0,0,1-5.81-4.26A50.56,50.56,0,0,1,52.43,87c-.24-.61-.12-1.06.71-1.08a17.36,17.36,0,0,0,2.26-.25c.51-.09.7.12.84.58a9.36,9.36,0,0,0,2.3,4c1.78,1.76,5.69,1.67,7.27-.28a6.67,6.67,0,0,0,.8-2.3.62.62,0,0,0-.27-.48c-1-.6-2.09-1.22-3.18-1.73A6.27,6.27,0,0,0,61.49,85.25ZM60.08,95.32A14.59,14.59,0,0,0,66,96.1c4.39-.37,6.07-2.32,7.64-7a.55.55,0,0,0,0-.3,5.24,5.24,0,0,0-.29-.64,2.24,2.24,0,0,0-.47.45,4.73,4.73,0,0,0-.37.9c-.66,2.3-2.32,3.79-4.2,5.08a4.13,4.13,0,0,1-2.49.72C63.94,95.29,62,95.32,60.08,95.32Zm8.61-11.5c.43.52.69,1.1,1.12,1.29a2.25,2.25,0,0,1,1.36,2.45c0,.65-.17,1.3-.26,2l.14.06,1.83-3.27Z"/><path class="cls-1" d="M52.85,85.47c-3.36-.37-6.73-.65-10.06-1.15a4.71,4.71,0,0,1-4.14-3.52,2.69,2.69,0,0,1,1.29-3.37,10.31,10.31,0,0,1,4.49-1.49,29.65,29.65,0,0,1,14.5,1.73,1.34,1.34,0,0,1,.27.13c.77.5,1.92.6,2.07,1.76a4.09,4.09,0,0,1-1.55,4.17,8.74,8.74,0,0,1-4.35,1.36c-.83.08-1.67.11-2.5.16ZM42.22,82.62l-.09.39a5,5,0,0,0,1.14.4c1.5.17,3,.25,4.52.43a31.41,31.41,0,0,0,10-.5,3.15,3.15,0,0,0,2.54-2.57,1.57,1.57,0,0,0-.41-1.68,7.8,7.8,0,0,0-4-1.57.55.55,0,0,0-.45.28.6.6,0,0,0,.26.46,2.07,2.07,0,0,0,.71.25c.78.19,1.57.31,2.34.53,1.11.32,1.12.39.76,1.45a3,3,0,0,0-.14.59c-.24,1.21-.51,1.48-1.73,1.59-2.29.21-4.58.36-6.86.6-2.45.25-4.81-.38-7.21-.65C43.13,82.58,42.67,82.62,42.22,82.62Z"/><path class="cls-1" d="M50.2,110.74a12.18,12.18,0,0,1-3.81-11.86c-2.13.55-4.13,1.41-6.39,1l.6-.47,5.61-4.62a6.54,6.54,0,0,0,2.52-5,34.33,34.33,0,0,1,.67-3.91c1.28-.12,1.42,0,1.69,1.07.12.49.25,1,.36,1.47,1.11,4.69,4.32,7.75,8.08,10.36a14.81,14.81,0,0,0,2.07,1c-2.94.49-5.59-.31-8.26-1.35.08,1.2.18,2.37.21,3.53a13.94,13.94,0,0,1-.78,5.51A5.78,5.78,0,0,1,50.2,110.74Zm.36-2.11c.82-5.41-.11-10.66-.31-15.93A9,9,0,0,0,50,96.49c.16,1.7.68,3.41.2,5.11C49.52,104,50.19,106.23,50.56,108.63Zm-1-10.57h-.27c-.34,1.76-1.19,3.51,0,5.33Z"/><path class="cls-1" d="M77.82,53.73a10.2,10.2,0,0,1-1.09-1.09,5.12,5.12,0,0,0-1.62-1.14c-2.45-1.47-4.9-.67-7.33-.14-1.57.34-3.07,1-4.61,1.41a2.5,2.5,0,0,1-.77,0c0-.26,0-.58.11-.77a1.53,1.53,0,0,1,.78-.51c2.45-.6,4.9-1.19,7.36-1.73a7.24,7.24,0,0,1,5.7,1.13,4.23,4.23,0,0,1,1.09,1.45A8.65,8.65,0,0,1,78,53.58Z"/><path class="cls-1" d="M73.69,51.9c1.1.6,2.23,1.15,3.28,1.83a3.58,3.58,0,0,1,.94,1.21c.42.7.79,1.44,1.24,2.27-.22.14-.51.44-.74.41A1,1,0,0,1,77.8,57a4.26,4.26,0,0,0-2.28-2.63,9.82,9.82,0,0,1-2.1-2.16Z"/><path class="cls-1" d="M60.08,95.32c1.93,0,3.86,0,5.79,0a4.13,4.13,0,0,0,2.49-.72c1.88-1.29,3.54-2.78,4.2-5.08a4.73,4.73,0,0,1,.37-.9,2.24,2.24,0,0,1,.47-.45,5.24,5.24,0,0,1,.29.64.55.55,0,0,1,0,.3c-1.57,4.66-3.25,6.61-7.64,7A14.59,14.59,0,0,1,60.08,95.32Z"/><path class="cls-1" d="M68.69,83.82l4.19,2.48-1.83,3.27-.14-.06c.09-.65.23-1.3.26-2a2.25,2.25,0,0,0-1.36-2.45C69.38,84.92,69.12,84.34,68.69,83.82Z"/><path class="cls-1" d="M49.52,98.06l-.26,5.32c-1.2-1.82-.35-3.57,0-5.33Z"/><path class="cls-1" d="M59.52,17.11,68,8.88c.7-.67-.36-1.73-1.06-1.06l-8.43,8.23c-.7.67.37,1.73,1.06,1.06Z"/><path class="cls-1" d="M71.06,25.57a23.58,23.58,0,0,1,6.87-3.17.75.75,0,0,0-.4-1.44,24.81,24.81,0,0,0-7.23,3.31c-.8.53,0,1.83.76,1.3Z"/><path class="cls-1" d="M76.39,36.42a127.35,127.35,0,0,0,19.2-1.73c1-.16.54-1.6-.4-1.45a124.63,124.63,0,0,1-18.8,1.68.75.75,0,0,0,0,1.5Z"/><path class="cls-1" d="M86.38,50.27a69.32,69.32,0,0,1,9.34-.17c1,0,1-1.45,0-1.5a69.32,69.32,0,0,0-9.34.17c-1,.08-1,1.58,0,1.5Z"/><path class="cls-1" d="M91.06,67.4h9.33a.75.75,0,0,0,0-1.5H91.06a.75.75,0,0,0,0,1.5Z"/><path class="cls-1" d="M88.5,79.12l8,3.25c.89.37,1.28-1.08.39-1.44l-8-3.26c-.89-.36-1.28,1.09-.39,1.45Z"/><path class="cls-1" d="M83.81,93.42A23.58,23.58,0,0,0,96.73,96.8c1,0,1-1.53,0-1.5a22,22,0,0,1-12.16-3.18.75.75,0,0,0-.76,1.3Z"/><path class="cls-1" d="M77.1,104.28a22.31,22.31,0,0,0,7.08,4.47c.9.35,1.29-1.1.4-1.45a20,20,0,0,1-6.42-4.08c-.7-.66-1.77.4-1.06,1.06Z"/><path class="cls-1" d="M62.87,109.18A32.33,32.33,0,0,0,71.68,115c.87.39,1.64-.9.75-1.29a31.13,31.13,0,0,1-8.5-5.56c-.71-.66-1.78.4-1.06,1.06Z"/><path class="cls-1" d="M55.62,113.65A50.88,50.88,0,0,0,57,125.51c.22.94,1.67.55,1.45-.39a48.74,48.74,0,0,1-1.35-11.47.75.75,0,0,0-1.5,0Z"/><path class="cls-1" d="M44.94,115.86a51.06,51.06,0,0,1-9.27,8.47c-.78.55,0,1.86.76,1.3A53.52,53.52,0,0,0,46,116.92c.62-.73-.44-1.79-1.07-1.06Z"/><path class="cls-1" d="M33.39,109.42,20,116.58c-.86.46-.1,1.75.75,1.3l13.43-7.17c.85-.45.09-1.75-.76-1.29Z"/><path class="cls-1" d="M21.54,104.3a69.85,69.85,0,0,1-13,3.62c-.95.16-.54,1.61.4,1.44a69.3,69.3,0,0,0,13-3.62c.89-.34.5-1.79-.4-1.44Z"/><path class="cls-1" d="M20.72,87.9H10.39a.75.75,0,0,0,0,1.5H20.72a.75.75,0,0,0,0-1.5Z"/><path class="cls-1" d="M14.39,72.24H.72a.75.75,0,0,0,0,1.5H14.39a.75.75,0,0,0,0-1.5Z"/><path class="cls-1" d="M43.77,19.34a44.54,44.54,0,0,1-10.2-8.87c-.62-.74-1.68.33-1.06,1.06A45.63,45.63,0,0,0,43,20.63c.82.52,1.58-.78.76-1.29Z"/><path class="cls-1" d="M36.57,24.47a107.12,107.12,0,0,0-15.4-8.28c-.88-.38-1.64.91-.76,1.29a106.2,106.2,0,0,1,15.4,8.29c.81.52,1.57-.78.76-1.3Z"/><path class="cls-1" d="M30.58,36.29a95.18,95.18,0,0,0-12.31-3.44c-.94-.2-1.34,1.25-.39,1.44a95.53,95.53,0,0,1,12.3,3.45c.91.32,1.3-1.13.4-1.45Z"/><path class="cls-1" d="M14.38,45.32A76,76,0,0,1,.94,42.56.75.75,0,0,0,.54,44a77.73,77.73,0,0,0,13.84,2.81c1,.11.95-1.39,0-1.5Z"/><path class="cls-1" d="M13.43,56.56a69.08,69.08,0,0,1-12.7.27c-1-.07-1,1.43,0,1.5a69.08,69.08,0,0,0,12.7-.27c1-.11,1-1.61,0-1.5Z"/><path class="cls-1" d="M49.32,13.5A26.52,26.52,0,0,1,54.43,1.08C55,.3,53.71-.44,53.14.32A27.45,27.45,0,0,0,47.87,13.1c-.13,1,1.31,1.36,1.45.4Z"/></g></g></svg>