<svg xmlns="http://www.w3.org/2000/svg" viewBox="0 0 379.55664 134.46484"><defs><style>.cls-1{fill:#fff;}</style></defs><title>Eszköz 2smacscs-logo-sk</title><g id="Réteg_2" data-name="Réteg 2"><g id="Réteg_1" data-name="Réteg 1"><path class="cls-1" d="M62.64677,104.792H45.28891v28.87012H36.51062V104.792H0v-7.6194l25.93644-86.815h9.1777L9.57663,95.9694h26.934V69.30394h8.57907V95.9694H62.64677Z"/><path class="cls-1" d="M137.26322,133.66208H73.02076v-8.82061L123.49715,50.858a23.99822,23.99822,0,0,0,3.79052-13.03218,17.78388,17.78388,0,0,0-4.98778-13.33272q-5.38622-5.9106-18.55414-5.71431-16.56269.20265-21.94622,19.44842h-8.978q6.18114-28.271,31.32314-28.27,14.96333,0,23.34269,7.218,8.978,7.62137,8.978,22.05446,0,7.41872-4.78807,15.63823L83.99386,124.84147h53.26936Z"/><path class="cls-1" d="M210.48319,98.77711q0,27.4692-19.15325,34.08416a28.29306,28.29306,0,0,1-9.37692,1.60357,30.15813,30.15813,0,0,1-18.75434-6.21554q-10.77315-8.01638-10.7734-24.2601V66.29652q0-26.26359,12.86837-40.90178,12.8686-14.63184,27.83169-15.63823v9.02228q-9.7773.60207-20.54925,11.32876Q161.8022,40.83473,161.20357,65.89514h13.76656q16.75849,0,25.93644,8.0198Q210.48295,82.5378,210.48319,98.77711Zm-8.77877.19971q0-11.0238-6.584-18.24427-5.98533-5.81367-23.143-5.81514H161.20357v29.47317q0,9.42611,5.68626,15.137,5.68578,5.71529,15.06319,5.7143Q201.70417,125.24187,201.70442,98.97682Z"/><path class="cls-1" d="M235.63883,32.34941q0,5.68592-2.75838,8.66691a9.80788,9.80788,0,0,1-7.57616,2.983,10.4114,10.4114,0,0,1-4.57375-.77241,7.68552,7.68552,0,0,1-2.47927-1.96482,10.93881,10.93881,0,0,1-2.37407-4.63155h3.35165a10.07847,10.07847,0,0,0,.69848,1.57909,6.264,6.264,0,0,0,.90794,1.08765,5.94941,5.94941,0,0,0,4.469,1.61434A7.27862,7.27862,0,0,0,230.3666,38.981q2.12905-1.92957,2.13-6.42015,0-3.29819-4.25958-7.29829l-7.40178-6.59637A12.74361,12.74361,0,0,1,216.715,9.5431a10.35657,10.35657,0,0,1,2.30441-6.66588A8.16252,8.16252,0,0,1,225.79284,0q7.6804,0,9.14751,7.22879h-3.21186Q230.82032,3.0877,225.863,3.0877a5.72514,5.72514,0,0,0-4.50409,1.68385,6.864,6.864,0,0,0-1.57135,4.562q0,4.00013,3.91034,7.64877l7.751,6.94685Q235.5682,28.13931,235.63883,32.34941Z"/><path class="cls-1" d="M262.12763,43.57831H240.13124v-2.8782L258.49639,3.50866h-18.1557V.421h21.7168V3.36867l-18.295,37.12194h18.36515Z"/><path class="cls-1" d="M286.17173,43.57831H268.01651V.421h18.15522v3.0877H271.08858V18.24525h9.42709V21.333h-9.42709V40.49061h15.08315Z"/><path class="cls-1" d="M312.171,43.57831h-2.44372L295.69137,10.03454V43.57831h-3.07206V.421H295.063l14.03592,33.54377V.421H312.171Z"/><path class="cls-1" d="M322.18065,37.96386q0,2.52723,3.42179,2.52675h11.17233v3.0877h-11.033q-3.63125,0-5.13244-1.50959a5.19,5.19,0,0,1-1.50121-3.82389V7.01733a6.28426,6.28426,0,0,1,1.85045-4.94679A7.12238,7.12238,0,0,1,325.88154.421h10.89323v3.0877H325.88154q-3.7021,0-3.70089,3.50867Z"/><path class="cls-1" d="M364.10184,43.57831H342.10545v-2.8782L360.4706,3.50866H342.3149V.421h21.7168V3.36867l-18.295,37.12194h18.36515Z"/><path class="cls-1" d="M375.018,43.57831H371.9459V.421H375.018Z"/><path class="cls-1" d="M244.36744,88.6897h-3.07255V53.81257L232.217,72.47975h-1.885l-9.0082-18.5967V88.6897h-3.07254V45.53235h2.51386L231.3096,67.42626l10.544-21.89391h2.51386Z"/><path class="cls-1" d="M273.19231,80.76a7.72338,7.72338,0,0,1-3.14221,6.24491,10.76858,10.76858,0,0,1-6.70378,2.17627,11.12136,11.12136,0,0,1-6.84309-2.24578,7.61562,7.61562,0,0,1-3.282-6.24589V53.46209a8.00346,8.00346,0,0,1,3.35165-6.45539,11.27533,11.27533,0,0,1,6.77344-1.96579,11.017,11.017,0,0,1,6.70378,2.10578,7.92064,7.92064,0,0,1,3.14221,6.3154Zm-3.07255-.63243V54.164a5.605,5.605,0,0,0-2.02482-4.42107,7.14622,7.14622,0,0,0-4.679-1.54385,8.27589,8.27589,0,0,0-4.39889,1.19239,5.58654,5.58654,0,0,0-2.7233,4.703v26.033a5.04233,5.04233,0,0,0,2.7233,4.42108,7.99412,7.99412,0,0,0,4.39889,1.40386,7.423,7.423,0,0,0,4.39938-1.33338A5.17667,5.17667,0,0,0,270.11976,80.12754Z"/><path class="cls-1" d="M296.71035,88.6897H281.48789V45.53235h3.07255V85.602h12.14991Z"/><path class="cls-1" d="M323.44075,88.6897H320.997L306.96111,55.14594V88.6897h-3.07206V45.53235h2.44372l14.03591,33.54377V45.53235h3.07207Z"/><path class="cls-1" d="M352.12777,88.6897h-3.21235L345.84288,75.637H335.78793L332.57559,88.6897h-3.21186l10.47433-43.15735h2.37407Zm-6.8431-16.21-4.25958-18.80718-4.25958,18.80718Z"/><path class="cls-1" d="M379.55664,88.6897h-3.42179l-9.98529-18.94717h-4.74862V88.6897h-3.07255V45.53235h9.846a11.40122,11.40122,0,0,1,3.77054.63242q6.49458,2.87822,6.49434,11.29743a14.44973,14.44973,0,0,1-2.30441,7.85925,9.96835,9.96835,0,0,1-6.63364,4.2801Zm-4.18993-31.2275a9.85954,9.85954,0,0,0-2.37406-6.80684,6.77073,6.77073,0,0,0-4.88792-1.96482h-6.70379V66.65482h7.33213A6.20376,6.20376,0,0,0,372.923,64.55,11.07734,11.07734,0,0,0,375.36671,57.4622Z"/><path class="cls-1" d="M238.15269,133.8011h-3.21234l-3.07255-13.05274H221.81285l-3.21234,13.05274h-3.21186L225.863,90.64375h2.37407Zm-6.84309-16.20995L227.05,98.784l-4.25958,18.80719Z"/><path class="cls-1" d="M262.11788,133.8011H246.89542V90.64375H249.968v40.06964h12.14991Z"/><path class="cls-1" d="M291.39038,121.66077a16.01678,16.01678,0,0,1-2.23427,7.99924q-2.72379,4.35255-8.30971,4.14109h-9.07785V90.64375h7.61123q7.75126,0,10.12509,6.10492a12.95336,12.95336,0,0,1-.20945,9.33359,14.41158,14.41158,0,0,1-3.35165,4.20961A13.7398,13.7398,0,0,1,291.39038,121.66077Zm-4.18992-20.491q-.27984-7.43634-8.03013-7.3678H274.8411V108.749h6.7033q2.37309,0,4.25958-2.66674A9.60706,9.60706,0,0,0,287.20046,101.16974Zm1.04772,20.491a12.33994,12.33994,0,0,0-1.88551-6.38589q-2.51337-3.43768-5.58641-3.43818H274.8411v18.87669h5.30682q4.53867,0,6.49434-3.01721A9.82583,9.82583,0,0,0,288.24818,121.66077Z"/><path class="cls-1" d="M319.33655,133.8011H301.18133V90.64375h18.15522v3.0877H304.25339V108.468h9.4271v3.08771h-9.4271v19.15765h15.08316Z"/><path class="cls-1" d="M351.19256,133.8011h-3.42179l-9.9853-18.94718h-4.74861V133.8011h-3.07255V90.64375h9.846a11.40122,11.40122,0,0,1,3.77054.63242q6.49458,2.8782,6.49434,11.29743a14.44978,14.44978,0,0,1-2.30441,7.85925,9.96842,9.96842,0,0,1-6.63365,4.2801Zm-4.18993-31.2275a9.85955,9.85955,0,0,0-2.37406-6.80685,6.77075,6.77075,0,0,0-4.88793-1.96481h-6.70378v17.96428H340.369a6.20373,6.20373,0,0,0,4.18992-2.10481A11.07734,11.07734,0,0,0,347.00263,102.5736Z"/><path class="cls-1" d="M378.85913,93.73145h-9.4266V133.8011H366.36V93.73145h-9.5664v-3.0877h22.06555Z"/></g></g></svg>