<svg xmlns="http://www.w3.org/2000/svg" viewBox="0 0 372.43262 135.48035"><defs><style>.cls-1{fill:#fff;}</style></defs><title>Eszköz 2smacscs-logo</title><g id="Réteg_2" data-name="Réteg 2"><g id="Réteg_1" data-name="Réteg 1"><path class="cls-1" d="M62.80029,104.5332H45.3999V133.332H36.6001V104.5332H0V96.93262L26,10.332h9.2002L9.6001,95.73242h27V69.13281h8.6001V95.73242H62.80029Z"/><path class="cls-1" d="M137.59961,133.332H73.19971V124.5332L123.7998,50.73242a23.853,23.853,0,0,0,3.79981-13,17.69008,17.69008,0,0,0-5-13.2998Q117.2002,18.53662,104,18.73242q-16.60327.20216-22,19.40039H73Q79.19629,9.93164,104.3999,9.93262q15,0,23.3999,7.20019,9,7.60254,9,22,0,7.4004-4.7998,15.59961L84.19971,124.5332h53.3999Z"/><path class="cls-1" d="M210.999,98.5332q0,27.40137-19.20019,34a28.48842,28.48842,0,0,1-9.3999,1.59961,30.33015,30.33015,0,0,1-18.8003-6.20019q-10.79955-7.99659-10.7998-24.2002V66.13281q0-26.19873,12.8999-40.80078,12.90015-14.5957,27.8999-15.59961v9Q183.79736,19.333,172.999,30.0332q-10.80029,10.70069-11.40039,35.69922h13.8003q16.79955,0,26,8Q210.99878,82.334,210.999,98.5332Zm-8.80029.19922q0-10.99658-6.6001-18.19922-6-5.79931-23.1997-5.80078h-10.8003v29.40039q0,9.40284,5.7002,15.09961,5.6997,5.70117,15.1001,5.7002Q202.19848,124.93262,202.19873,98.73242Z"/><path class="cls-1" d="M236.21631,32.26953q0,5.67188-2.76514,8.64551a9.85714,9.85714,0,0,1-7.59472,2.97559,10.48234,10.48234,0,0,1-4.585-.77051,7.6983,7.6983,0,0,1-2.48535-1.96A10.89314,10.89314,0,0,1,216.40625,36.54h3.35986a10.02928,10.02928,0,0,0,.7002,1.57519,6.25541,6.25541,0,0,0,.91015,1.085,5.98067,5.98067,0,0,0,4.48,1.61035,7.3168,7.3168,0,0,0,5.0747-1.92578q2.13428-1.92482,2.13526-6.4043,0-3.29-4.27-7.28027l-7.41993-6.58008a12.68439,12.68439,0,0,1-4.13037-9.10059,10.299,10.299,0,0,1,2.31006-6.64941A8.20071,8.20071,0,0,1,226.34619,0q7.69922,0,9.16992,7.21094h-3.21972q-.91041-4.13086-5.87989-4.13086a5.75451,5.75451,0,0,0-4.51513,1.67969,6.82629,6.82629,0,0,0-1.5752,4.55078q0,3.99023,3.91992,7.62988l7.77,6.92969Q236.14551,28.06982,236.21631,32.26953Z"/><path class="cls-1" d="M262.186,43.4707h-22.0503V40.59961L258.5459,3.5H240.3457V.41992h21.77V3.36035L243.77588,40.39063H262.186Z"/><path class="cls-1" d="M285.70508,43.4707H267.50537V.41992h18.19971V3.5H270.585V18.2002h9.4502v3.08007H270.585V40.39063h15.12012Z"/><path class="cls-1" d="M311.18408,43.4707h-2.4497L294.66406,10.00977V43.4707h-3.07959V.41992h2.44971l14.07031,33.46094V.41992h3.07959Z"/><path class="cls-1" d="M320.63428,37.87012q0,2.521,3.43017,2.52051h11.19971V43.4707H324.2041q-3.64014,0-5.145-1.50586a5.16374,5.16374,0,0,1-1.50488-3.81445V7a6.25215,6.25215,0,0,1,1.855-4.93457A7.162,7.162,0,0,1,324.34424.41992h10.91992V3.5H324.34424q-3.71118,0-3.71,3.5Z"/><path class="cls-1" d="M362.07373,43.4707H340.02344V40.59961L358.43359,3.5H340.2334V.41992h21.77V3.36035L343.66357,40.39063h18.41016Z"/><path class="cls-1" d="M372.43262,43.4707H369.353V.41992h3.07959Z"/><path class="cls-1" d="M244.96631,89.4707h-3.08008v-34.791l-9.1001,18.62109h-1.88965L221.86621,54.75V89.4707h-3.08008V46.41992h2.52l10.57031,21.83985,10.56983-21.83985h2.52Z"/><path class="cls-1" d="M271.63525,81.56055a7.69161,7.69161,0,0,1-3.1499,6.22949,10.83054,10.83054,0,0,1-6.72021,2.1709,11.1852,11.1852,0,0,1-6.85987-2.24024,7.58582,7.58582,0,0,1-3.29-6.23047V54.33008a7.9715,7.9715,0,0,1,3.35987-6.43945,11.3429,11.3429,0,0,1,6.79-1.96094,11.08131,11.08131,0,0,1,6.72021,2.10058,7.88756,7.88756,0,0,1,3.1499,6.29981Zm-3.08007-.63086V55.03027a5.57982,5.57982,0,0,0-2.02979-4.41015,7.18665,7.18665,0,0,0-4.69043-1.54,8.3272,8.3272,0,0,0-4.40967,1.18945,5.56724,5.56724,0,0,0-2.73,4.69141V80.92969a5.0267,5.0267,0,0,0,2.73,4.41015,8.04113,8.04113,0,0,0,4.40967,1.40039,7.467,7.467,0,0,0,4.41016-1.33007A5.15638,5.15638,0,0,0,268.55518,80.92969Z"/><path class="cls-1" d="M292.98389,89.4707H277.72412V46.41992h3.08008V86.39063h12.17969Z"/><path class="cls-1" d="M317.55322,89.4707h-2.4497L301.0332,56.00977V89.4707h-3.07959V46.41992h2.44971l14.07031,33.46094V46.41992h3.07959Z"/><path class="cls-1" d="M344.0835,89.4707h-3.22022L337.7832,76.4502H327.70361L324.4834,89.4707h-3.21973l10.5-43.05078h2.37988Zm-6.85987-16.16992-4.27-18.76074-4.27,18.76074Z"/><path class="cls-1" d="M369.353,89.4707h-3.43018L355.91309,70.57031h-4.76026V89.4707h-3.08008V46.41992h9.87012a11.48024,11.48024,0,0,1,3.77979.63086q6.51049,2.87109,6.51025,11.26953a14.36252,14.36252,0,0,1-2.31006,7.83985,9.99762,9.99762,0,0,1-6.6499,4.26953Zm-4.2002-31.15039a9.80575,9.80575,0,0,0-2.37988-6.79,6.805,6.805,0,0,0-4.8999-1.96h-6.72022V67.49023h7.3501a6.23077,6.23077,0,0,0,4.2002-2.0996A11.016,11.016,0,0,0,365.15283,58.32031Z"/><path class="cls-1" d="M238.73633,135.4707h-3.22022L232.436,122.4502H222.35645l-3.22022,13.0205H215.9165l10.5-43.05078h2.37989Zm-6.85987-16.16992-4.27-18.76074-4.27,18.76074Z"/><path class="cls-1" d="M257.91553,135.4707H242.65576V92.41992h3.08008v39.97071h12.17969Z"/><path class="cls-1" d="M282.415,123.36035a15.91789,15.91789,0,0,1-2.23975,7.97949q-2.73046,4.34181-8.33008,4.13086h-9.10009V92.41992H270.375q7.77027,0,10.1499,6.08985a12.86231,12.86231,0,0,1-.21,9.31054,14.3869,14.3869,0,0,1-3.35986,4.19922A13.68125,13.68125,0,0,1,282.415,123.36035Zm-4.2002-20.44043q-.28051-7.418-8.0498-7.34961H265.8252v14.91016h6.71972q2.37891,0,4.27-2.66016A9.54805,9.54805,0,0,0,278.21484,102.91992Zm1.0503,20.44043a12.26522,12.26522,0,0,0-1.89014-6.37012q-2.51954-3.42919-5.6001-3.42968h-5.9497v18.83008H271.145q4.5498,0,6.51025-3.00977A9.76537,9.76537,0,0,0,279.26514,123.36035Z"/><path class="cls-1" d="M305.585,135.4707H287.38525V92.41992H305.585V95.5H290.46484v14.7002h9.4502v3.08007h-9.4502v19.11036H305.585Z"/><path class="cls-1" d="M332.67432,135.4707h-3.43018l-10.00976-18.90039h-4.76026V135.4707H311.394V92.41992h9.87012a11.48024,11.48024,0,0,1,3.77979.63086q6.51049,2.87109,6.51025,11.26953a14.36252,14.36252,0,0,1-2.31006,7.83985,9.99767,9.99767,0,0,1-6.6499,4.26953Zm-4.2002-31.15039a9.80575,9.80575,0,0,0-2.37988-6.79,6.805,6.805,0,0,0-4.8999-1.96h-6.72022v17.91992h7.3501a6.23073,6.23073,0,0,0,4.20019-2.0996A11.016,11.016,0,0,0,328.47412,104.32031Z"/><path class="cls-1" d="M355.564,95.5h-9.4497v39.9707h-3.08008V95.5h-9.58984V92.41992H355.564Z"/></g></g></svg>